<svg xmlns="http://www.w3.org/2000/svg" viewBox="0 -0.5 420 21" shape-rendering="crispEdges"><path stroke="#666" d="M156 0h2M29 1h1m45 0h1m37 0h1m3 0h4m16 0h3m15 0h2m43 0h3m16 0h3m15 0h4m43 0h3m16 0h3m15 0h4M9 2h2m1 0h2m14 0h3m3 0h1m18 0h3m15 0h1m1 0h1m1 0h2m15 0h2m2 0h2m14 0h4m1 0h4m13 0h4m1 0h1m14 0h2m2 0h3m12 0h2m2 0h3m18 0h2m3 0h1m15 0h1m1 0h2m14 0h1m2 0h1m23 0h1m17 0h2m3 0h1m15 0h1m1 0h2m14 0h1m2 0h1m23 0h1m15 0h7m17 0h2m16 0h7M7 3h3m1 0h4m11 0h8m1 0h2m11 0h6m3 0h1m13 0h2m3 0h1m1 0h1m12 0h5m1 0h2m11 0h1m1 0h1m2 0h1m4 0h1m11 0h3m4 0h3m10 0h2m4 0h5m10 0h9m12 0h6m3 0h1m13 0h3m2 0h1m14 0h1m3 0h4m1 0h1m10 0h1m6 0h2m12 0h6m3 0h1m13 0h3m2 0h1m14 0h1m3 0h4m1 0h1m10 0h1m6 0h2m15 0h7m13 0h9m11 0h7m1 0h1M5 4h4m4 0h2m10 0h2m4 0h3m3 0h1m10 0h5m4 0h1m9 0h5m4 0h2m1 0h1m14 0h2m1 0h2m1 0h2m7 0h4m7 0h2m12 0h1m4 0h4m8 0h3m8 0h1m9 0h2m2 0h2m3 0h3m1 0h1m7 0h2m4 0h1m3 0h1m11 0h5m2 0h2m11 0h3m4 0h6m8 0h2m1 0h9m9 0h2m4 0h1m3 0h1m11 0h5m2 0h2m11 0h3m4 0h6m8 0h2m1 0h9m11 0h4m2 0h5m10 0h3m1 0h7m8 0h3m1 0h2m4 0h3M4 5h4m5 0h5m7 0h2m10 0h2m7 0h2m8 0h3m8 0h4m4 0h2m2 0h2m8 0h2m3 0h1m5 0h4m4 0h1m2 0h2m7 0h3m8 0h2m9 0h1m7 0h1m11 0h2m8 0h2m7 0h2m2 0h2m3 0h5m8 0h2m9 0h1m8 0h2m10 0h3m5 0h5m13 0h3m1 0h1m1 0h2m5 0h5m8 0h2m9 0h1m8 0h2m10 0h3m5 0h5m13 0h3m1 0h1m1 0h2m9 0h4m6 0h3m9 0h3m16 0h3m8 0h2M4 6h3m8 0h2m1 0h1m5 0h2m10 0h2m8 0h1m9 0h2m8 0h2m11 0h2m8 0h2m11 0h2m4 0h1m3 0h1m9 0h1m6 0h4m9 0h1m8 0h1m11 0h2m25 0h2m12 0h2m7 0h2m8 0h2m1 0h1m6 0h2m11 0h3m7 0h1m10 0h3m4 0h2m12 0h2m7 0h2m8 0h2m1 0h1m6 0h2m11 0h3m7 0h1m10 0h3m5 0h4m11 0h1m7 0h3m9 0h2m8 0h1m9 0h2M3 7h2m13 0h1m4 0h3m9 0h5m5 0h2m12 0h2m4 0h1m15 0h1m6 0h3m11 0h1m4 0h1m14 0h1m6 0h1m2 0h1m9 0h2m5 0h4m10 0h1m2 0h1m4 0h2m12 0h1m4 0h2m12 0h2m1 0h1m5 0h2m8 0h4m6 0h1m13 0h3m6 0h2m9 0h3m4 0h2m12 0h2m1 0h1m5 0h2m8 0h4m6 0h1m13 0h3m6 0h2m9 0h3m4 0h1m15 0h2m6 0h3m9 0h2m6 0h3m9 0h2M3 8h3m13 0h1m3 0h3m13 0h2m4 0h2m12 0h1m1 0h1m3 0h2m14 0h2m3 0h4m11 0h2m5 0h2m12 0h1m5 0h1m13 0h2m4 0h2m2 0h1m13 0h1m3 0h3m12 0h1m4 0h2m12 0h4m3 0h1m1 0h2m10 0h2m6 0h2m12 0h3m5 0h3m10 0h3m3 0h2m12 0h4m3 0h1m1 0h2m10 0h2m6 0h2m12 0h3m5 0h3m10 0h3m3 0h1m15 0h3m4 0h2m11 0h2m6 0h3m10 0h3M2 9h3m13 0h2m3 0h2m14 0h1m5 0h2m14 0h1m3 0h2m15 0h2m2 0h3m12 0h3m4 0h2m12 0h2m4 0h1m13 0h4m20 0h1m3 0h1m13 0h2m19 0h3m3 0h1m13 0h2m6 0h2m13 0h2m5 0h1m14 0h2m17 0h3m3 0h1m13 0h2m6 0h2m13 0h2m5 0h1m14 0h2m2 0h1m15 0h2m3 0h2m13 0h2m6 0h1m13 0h1M4 10h2m10 0h3m4 0h2m13 0h2m4 0h3m14 0h2m2 0h2m16 0h1m3 0h1m14 0h2m4 0h2m11 0h3m4 0h3m14 0h1m3 0h1m14 0h2m5 0h2m11 0h2m5 0h2m13 0h2m3 0h2m13 0h2m3 0h3m14 0h2m4 0h2m15 0h1m3 0h2m13 0h2m3 0h2m13 0h2m3 0h3m14 0h2m4 0h2m15 0h1m3 0h3m11 0h2m4 0h1m14 0h2m5 0h1m15 0h1M3 11h3m11 0h2m4 0h3m18 0h3m14 0h2m2 0h3m12 0h2m4 0h1m15 0h2m3 0h2m15 0h1m4 0h2m14 0h1m4 0h1m13 0h1m6 0h3m10 0h2m5 0h1m14 0h2m3 0h2m13 0h2m3 0h1m16 0h2m4 0h2m14 0h1m4 0h1m14 0h2m3 0h2m13 0h2m3 0h1m16 0h2m4 0h2m14 0h1m4 0h2m12 0h2m4 0h1m15 0h2m3 0h1M3 12h2m14 0h1m3 0h4m12 0h2m4 0h3m14 0h1m2 0h3m12 0h2m4 0h2m14 0h1m3 0h3m15 0h1m4 0h2m13 0h2m3 0h3m10 0h3m5 0h2m13 0h3m2 0h2m13 0h3m4 0h1m13 0h2m3 0h2m16 0h1m4 0h3m12 0h3m2 0h2m13 0h3m4 0h1m13 0h2m3 0h2m16 0h1m4 0h3m12 0h3m4 0h1m12 0h2m6 0h2m13 0h1m3 0h1m13 0h1m2 0h2M4 13h1m13 0h2m3 0h1m1 0h2m12 0h2m4 0h3m10 0h3m4 0h2m13 0h2m5 0h3m10 0h3m4 0h2m15 0h1m4 0h2m11 0h2m7 0h2m9 0h3m5 0h2m12 0h3m4 0h5m9 0h3m5 0h1m12 0h2m4 0h2m15 0h1m5 0h2m11 0h4m3 0h5m9 0h3m5 0h1m12 0h2m4 0h2m15 0h1m5 0h2m11 0h4m4 0h1m14 0h1m5 0h2m13 0h1m3 0h1m2 0h1m10 0h4M4 14h1m12 0h2m6 0h2m12 0h2m4 0h5m9 0h1m6 0h3m11 0h1m7 0h3m9 0h2m6 0h1m11 0h4m5 0h2m9 0h3m8 0h2m9 0h1m8 0h1m13 0h1m7 0h2m10 0h2m6 0h1m2 0h1m9 0h1m6 0h1m1 0h1m11 0h2m6 0h1m11 0h3m7 0h2m10 0h2m6 0h1m2 0h1m9 0h1m6 0h1m1 0h1m11 0h2m6 0h1m11 0h3m6 0h1m9 0h1m3 0h1m7 0h1m9 0h2m2 0h1m5 0h2m11 0h1M3 15h1m14 0h1m7 0h2m8 0h5m4 0h2m1 0h2m9 0h1m7 0h5m6 0h3m7 0h3m10 0h1m6 0h3m6 0h4m8 0h3m8 0h3m8 0h2m8 0h3m9 0h3m6 0h4m6 0h2m10 0h2m7 0h4m9 0h1m7 0h2m3 0h1m5 0h4m5 0h2m11 0h2m7 0h2m10 0h2m7 0h4m9 0h1m7 0h2m3 0h1m5 0h4m5 0h2m11 0h2m7 0h3m7 0h2m2 0h1m7 0h1m9 0h4m7 0h2m11 0h1M3 16h1m3 0h1m9 0h1m9 0h1m3 0h1m4 0h2m10 0h3m3 0h5m8 0h2m1 0h2m4 0h3m10 0h2m1 0h1m1 0h3m12 0h5m2 0h4m11 0h1m1 0h2m1 0h1m1 0h3m10 0h3m4 0h2m1 0h3m9 0h4m4 0h4m8 0h1m3 0h3m4 0h2m9 0h2m5 0h1m2 0h2m8 0h1m2 0h2m3 0h6m5 0h4m5 0h1m3 0h2m8 0h1m3 0h3m4 0h2m9 0h2m5 0h1m2 0h2m8 0h1m2 0h2m3 0h6m5 0h4m5 0h1m3 0h2m8 0h2m7 0h4m8 0h4m7 0h1m10 0h1m8 0h3M3 17h2m1 0h3m3 0h2m2 0h2m9 0h1m3 0h6m13 0h1m3 0h3m13 0h3m4 0h1m12 0h9m1 0h2m9 0h7m14 0h10m11 0h1m1 0h7m13 0h3m3 0h3m10 0h2m1 0h8m11 0h1m3 0h5m10 0h5m3 0h2m11 0h2m1 0h2m1 0h2m14 0h2m1 0h8m11 0h1m3 0h5m10 0h5m3 0h2m11 0h2m1 0h2m1 0h2m14 0h1m4 0h1m2 0h1m1 0h1m11 0h2m4 0h4m10 0h5m4 0h2M4 18h2m1 0h3m2 0h3m1 0h2m9 0h1m3 0h2m18 0h1m2 0h1m18 0h1m18 0h2m6 0h1m11 0h7m16 0h4m15 0h7m15 0h3m1 0h2m14 0h1m3 0h3m14 0h2m1 0h1m2 0h2m14 0h1m3 0h1m15 0h2m1 0h5m13 0h1m3 0h3m14 0h2m1 0h1m2 0h2m14 0h1m3 0h1m15 0h2m1 0h5m11 0h4m1 0h4m17 0h5m13 0h3m2 0h2M10 19h3m2 0h2m11 0h3m20 0h4m19 0h3m16 0h1m82 0h2m1 0h2m20 0h1m37 0h3m18 0h2m2 0h2m19 0h1m37 0h3m18 0h2m2 0h2m12 0h4m3 0h1m16 0h3m21 0h2m-3 1h2"/><path stroke="#6b6b6b" d="M157 1h1M72 2h1m1 0h1m41 0h1m21 0h1m17 0h2m42 0h3m17 0h1m17 0h2m44 0h3m17 0h1m17 0h2M10 3h1m23 0h1m19 0h3m16 0h3m20 0h1m16 0h2m3 0h2m15 0h1m1 0h2m15 0h1m2 0h1m42 0h3m17 0h2m16 0h1m1 0h1m43 0h3m17 0h2m16 0h1m1 0h1m87 0h1M9 4h4m14 0h4m3 0h3m16 0h4m15 0h1m1 0h2m2 0h1m11 0h4m2 0h1m2 0h1m13 0h3m3 0h1m12 0h2m1 0h1m2 0h1m18 0h5m12 0h2m2 0h1m1 0h1m3 0h1m10 0h1m1 0h2m1 0h1m37 0h1m2 0h1m16 0h1m20 0h1m1 0h2m1 0h1m37 0h1m2 0h1m16 0h1m24 0h2m18 0h1m18 0h1m2 0h4M8 5h1m1 0h3m14 0h3m1 0h3m1 0h2m11 0h6m17 0h2m4 0h2m12 0h1m1 0h1m1 0h1m1 0h2m10 0h2m2 0h1m1 0h1m2 0h2m13 0h3m2 0h4m9 0h4m2 0h3m1 0h1m13 0h4m1 0h1m2 0h2m10 0h2m1 0h2m2 0h1m12 0h5m2 0h1m15 0h1m3 0h1m13 0h2m1 0h2m3 0h1m1 0h1m12 0h2m1 0h2m2 0h1m12 0h5m2 0h1m15 0h1m3 0h1m13 0h2m1 0h2m3 0h1m1 0h1m15 0h6m15 0h7m12 0h2m3 0h3M7 6h1m3 0h1m1 0h2m2 0h1m8 0h1m2 0h1m2 0h2m1 0h1m11 0h3m3 0h1m1 0h1m2 0h2m8 0h2m2 0h1m2 0h1m2 0h1m12 0h1m2 0h1m2 0h1m3 0h1m7 0h3m6 0h4m13 0h1m2 0h3m11 0h1m1 0h1m6 0h2m9 0h1m3 0h2m3 0h2m2 0h1m6 0h5m6 0h1m11 0h1m2 0h2m2 0h1m12 0h4m4 0h3m11 0h1m4 0h5m9 0h5m6 0h1m11 0h1m2 0h2m2 0h1m12 0h4m4 0h3m11 0h1m4 0h5m12 0h5m4 0h2m11 0h3m4 0h2m11 0h3m4 0h2M5 7h2m7 0h4m8 0h1m5 0h1m14 0h1m1 0h2m7 0h1m7 0h4m2 0h1m4 0h2m1 0h1m10 0h2m7 0h2m6 0h2m9 0h2m9 0h2m1 0h1m7 0h1m19 0h2m1 0h2m7 0h1m10 0h1m7 0h1m1 0h2m7 0h1m11 0h2m5 0h1m11 0h1m8 0h4m11 0h1m4 0h2m1 0h1m9 0h1m1 0h2m7 0h1m11 0h2m5 0h1m11 0h1m8 0h4m11 0h1m4 0h2m1 0h1m8 0h2m1 0h1m9 0h2m11 0h3m4 0h2m11 0h2M6 8h1m6 0h2m2 0h2m7 0h1m9 0h3m8 0h1m10 0h1m1 0h1m6 0h2m21 0h1m1 0h1m6 0h2m9 0h2m9 0h1m7 0h2m1 0h2m7 0h1m8 0h2m1 0h1m8 0h4m7 0h2m9 0h1m18 0h1m8 0h1m2 0h2m5 0h3m10 0h1m10 0h1m11 0h1m8 0h1m19 0h1m8 0h1m2 0h2m5 0h3m10 0h1m10 0h1m11 0h1m8 0h1m7 0h2m10 0h3m9 0h2m8 0h1m11 0h2m7 0h1M5 9h3m8 0h2m7 0h2m10 0h2m8 0h1m12 0h1m6 0h1m13 0h1m7 0h1m9 0h2m9 0h3m7 0h2m7 0h2m10 0h1m7 0h3m13 0h1m5 0h2m18 0h1m11 0h2m7 0h4m7 0h2m10 0h2m10 0h1m8 0h2m11 0h1m5 0h1m11 0h2m7 0h4m7 0h2m10 0h2m10 0h1m8 0h2m11 0h1m5 0h3m11 0h1m7 0h2m10 0h1m9 0h2m7 0h4m1 0h1M6 10h2m7 0h1m9 0h3m8 0h2m9 0h1m12 0h1m6 0h1m10 0h5m5 0h3m9 0h2m8 0h1m9 0h1m10 0h2m9 0h3m5 0h2m11 0h1m9 0h1m9 0h1m9 0h2m8 0h3m18 0h2m8 0h3m10 0h1m20 0h3m6 0h2m8 0h3m18 0h2m8 0h3m10 0h1m20 0h3m7 0h1m9 0h1m7 0h1m12 0h1m8 0h2m12 0h1M6 11h1m9 0h1m9 0h2m11 0h1m7 0h2m8 0h4m17 0h2m7 0h3m19 0h1m11 0h3m7 0h1m12 0h1m4 0h1m1 0h4m7 0h2m10 0h1m7 0h2m8 0h2m10 0h2m19 0h1m6 0h4m20 0h2m9 0h3m6 0h2m10 0h2m19 0h1m6 0h4m20 0h2m9 0h3m7 0h2m7 0h3m7 0h4m8 0h3m6 0h1m13 0h3M5 12h1m11 0h2m8 0h1m20 0h2m7 0h5m6 0h2m8 0h2m8 0h1m11 0h2m7 0h3m10 0h2m7 0h1m10 0h2m8 0h1m7 0h2m10 0h2m8 0h3m7 0h3m9 0h1m8 0h3m9 0h1m7 0h1m11 0h4m8 0h2m9 0h1m7 0h3m9 0h1m8 0h3m9 0h1m7 0h1m11 0h4m8 0h2m9 0h1m8 0h1m9 0h2m10 0h1m10 0h2m5 0h4m8 0h1m1 0h2M5 13h1m9 0h3m9 0h1m7 0h2m1 0h1m9 0h3m6 0h1m9 0h5m7 0h1m10 0h1m8 0h1m9 0h2m9 0h1m1 0h2m7 0h3m4 0h4m18 0h2m10 0h1m2 0h2m6 0h1m14 0h1m5 0h1m9 0h1m10 0h1m10 0h2m4 0h1m2 0h4m8 0h2m6 0h1m1 0h1m14 0h1m5 0h1m9 0h1m10 0h1m10 0h2m4 0h1m2 0h4m8 0h2m6 0h1m1 0h1m10 0h2m9 0h2m8 0h1m8 0h4m5 0h2m1 0h2M5 14h1m10 0h1m10 0h1m6 0h5m11 0h1m6 0h2m10 0h3m4 0h4m11 0h1m1 0h2m4 0h1m9 0h2m4 0h5m11 0h3m4 0h2m13 0h2m4 0h3m10 0h4m6 0h3m10 0h1m1 0h2m2 0h1m2 0h1m9 0h2m1 0h1m2 0h1m1 0h2m1 0h1m8 0h1m1 0h1m2 0h1m2 0h1m1 0h3m9 0h2m7 0h2m12 0h1m1 0h2m2 0h1m2 0h1m9 0h2m1 0h1m2 0h1m1 0h2m1 0h1m8 0h1m1 0h1m2 0h1m2 0h1m1 0h3m9 0h2m7 0h2m10 0h4m6 0h3m9 0h1m10 0h2m8 0h2m6 0h1m1 0h1M4 15h1m2 0h2m3 0h2m3 0h1m10 0h1m2 0h2m1 0h2m14 0h1m2 0h6m13 0h1m2 0h3m13 0h5m4 0h1m10 0h6m15 0h1m4 0h3m13 0h3m3 0h2m11 0h1m3 0h1m1 0h1m2 0h1m12 0h2m1 0h3m1 0h3m13 0h1m1 0h2m2 0h3m10 0h3m1 0h1m1 0h3m11 0h1m3 0h1m2 0h1m2 0h1m11 0h2m1 0h3m1 0h3m13 0h1m1 0h2m2 0h3m10 0h3m1 0h1m1 0h3m11 0h1m3 0h1m2 0h1m2 0h1m12 0h2m2 0h1m1 0h1m2 0h2m9 0h5m2 0h1m14 0h1m1 0h3m2 0h4M4 16h3m1 0h2m1 0h4m1 0h1m13 0h1m1 0h2m1 0h1m15 0h1m1 0h1m18 0h2m1 0h1m15 0h1m1 0h1m3 0h2m1 0h2m12 0h2m16 0h1m2 0h1m1 0h1m16 0h4m2 0h1m16 0h3m14 0h3m3 0h4m13 0h1m1 0h3m1 0h2m11 0h2m2 0h1m1 0h1m16 0h2m1 0h1m1 0h1m1 0h1m11 0h3m3 0h4m13 0h1m1 0h3m1 0h2m11 0h2m2 0h1m1 0h1m16 0h2m1 0h1m1 0h1m1 0h1m12 0h1m3 0h3m16 0h2m2 0h3m12 0h5M5 17h1m3 0h1m1 0h1m2 0h2m12 0h3m20 0h1m1 0h1m19 0h1m1 0h2m22 0h1m54 0h1m23 0h3m15 0h1m20 0h3m20 0h3m15 0h1m2 0h1m2 0h4m12 0h1m20 0h3m20 0h3m15 0h1m2 0h1m2 0h4m11 0h2m3 0h2m16 0h2m21 0h1m2 0h1M10 18h2m3 0h1m12 0h3m21 0h2m20 0h3m102 0h1m39 0h1m20 0h3m18 0h1m41 0h1m20 0h3m18 0h1m20 0h1m19 0h2m21 0h2m-2 1h1"/><path stroke="#707070" d="M116 3h2m18 0h1m18 0h2m82 0h1m83 0h1M73 4h1m42 0h3m17 0h2m16 0h3m22 0h1m16 0h1m4 0h2m17 0h2m17 0h2m39 0h1m4 0h2m17 0h2m17 0h2M9 5h1m20 0h1m3 0h1m19 0h2m17 0h2m17 0h1m3 0h1m2 0h1m14 0h1m1 0h2m18 0h2m17 0h2m3 0h1m13 0h1m4 0h1m17 0h1m2 0h2m18 0h2m17 0h3m16 0h1m22 0h1m2 0h2m18 0h2m17 0h3m16 0h1m65 0h3M8 6h3m1 0h1m14 0h2m1 0h2m2 0h1m15 0h3m1 0h1m15 0h2m1 0h2m1 0h2m14 0h2m1 0h2m1 0h3m12 0h5m15 0h2m1 0h2m3 0h1m11 0h1m1 0h6m12 0h3m2 0h3m2 0h2m12 0h6m13 0h2m2 0h2m17 0h4m15 0h4m19 0h6m13 0h2m2 0h2m17 0h4m15 0h4m22 0h4m16 0h4m16 0h4M7 7h3m1 0h3m13 0h2m1 0h2m1 0h2m13 0h1m2 0h7m12 0h2m1 0h4m2 0h1m13 0h7m10 0h5m2 0h2m2 0h1m12 0h7m12 0h3m4 0h1m13 0h4m2 0h4m9 0h1m2 0h1m4 0h2m14 0h5m13 0h5m2 0h1m16 0h4m2 0h1m11 0h1m2 0h1m4 0h2m14 0h5m13 0h5m2 0h1m16 0h4m2 0h1m11 0h1m1 0h9m16 0h4m15 0h2m2 0h3M7 8h2m3 0h1m2 0h2m10 0h2m3 0h4m12 0h2m2 0h1m2 0h3m11 0h4m3 0h5m10 0h1m1 0h1m3 0h2m13 0h2m5 0h2m10 0h1m2 0h1m4 0h2m13 0h1m5 0h2m13 0h2m4 0h3m8 0h5m4 0h2m14 0h1m3 0h1m14 0h2m4 0h4m13 0h2m1 0h5m9 0h5m4 0h2m14 0h1m3 0h1m14 0h2m4 0h4m13 0h2m1 0h5m10 0h7m17 0h3m3 0h2m14 0h2m2 0h3M8 9h1m3 0h4m11 0h2m5 0h3m11 0h2m6 0h4m8 0h2m7 0h4m9 0h4m4 0h1m14 0h1m5 0h1m11 0h3m6 0h1m11 0h3m6 0h4m8 0h3m6 0h2m8 0h4m5 0h2m13 0h1m4 0h2m14 0h1m4 0h5m11 0h2m3 0h1m2 0h3m7 0h4m5 0h2m13 0h1m4 0h2m14 0h1m4 0h5m11 0h2m3 0h1m2 0h3m9 0h2m6 0h3m10 0h5m3 0h2m12 0h4m2 0h1M8 10h2m4 0h1m13 0h2m5 0h1m12 0h2m6 0h4m8 0h2m7 0h1m13 0h1m7 0h1m11 0h2m6 0h1m13 0h2m5 0h2m10 0h3m6 0h2m11 0h2m5 0h2m12 0h1m5 0h2m10 0h4m4 0h3m13 0h1m7 0h2m9 0h3m8 0h1m11 0h1m5 0h2m10 0h4m4 0h3m13 0h1m7 0h2m9 0h3m8 0h1m11 0h1m6 0h2m9 0h4m5 0h3m11 0h2m6 0h4M7 11h2m5 0h2m12 0h2m5 0h4m10 0h3m4 0h1m11 0h5m4 0h1m12 0h1m8 0h3m8 0h3m6 0h2m11 0h3m5 0h4m11 0h1m2 0h4m13 0h1m4 0h2m12 0h3m5 0h2m9 0h4m6 0h2m11 0h2m7 0h3m10 0h1m7 0h1m11 0h3m5 0h2m9 0h4m6 0h2m11 0h2m7 0h3m10 0h1m7 0h1m12 0h1m5 0h1m14 0h2m4 0h2m10 0h4m6 0h3M6 12h2m6 0h3m11 0h2m4 0h5m11 0h2m4 0h1m13 0h3m4 0h1m11 0h3m2 0h1m3 0h2m15 0h7m10 0h2m3 0h5m11 0h3m2 0h2m14 0h4m3 0h1m13 0h4m3 0h2m12 0h1m6 0h2m9 0h5m3 0h3m14 0h1m4 0h4m11 0h4m3 0h2m12 0h1m6 0h2m9 0h5m3 0h3m14 0h1m4 0h4m10 0h2m5 0h2m13 0h1m6 0h3m11 0h2m5 0h1M6 13h3m4 0h2m13 0h2m4 0h1m2 0h1m13 0h1m3 0h2m15 0h1m2 0h4m12 0h5m1 0h2m12 0h9m1 0h1m15 0h1m15 0h3m2 0h2m13 0h2m2 0h1m3 0h2m13 0h2m1 0h2m1 0h2m11 0h6m2 0h2m9 0h2m2 0h4m1 0h2m14 0h2m3 0h1m1 0h1m13 0h2m1 0h2m1 0h2m11 0h6m2 0h2m9 0h2m2 0h4m1 0h2m14 0h2m3 0h1m1 0h1m10 0h1m2 0h2m2 0h5m11 0h2m4 0h2m14 0h1m4 0h3M6 14h4m2 0h4m12 0h6m17 0h6m15 0h4m16 0h1m2 0h4m12 0h4m19 0h4m17 0h4m17 0h3m1 0h2m14 0h1m2 0h2m1 0h2m14 0h2m1 0h1m2 0h1m12 0h2m1 0h2m1 0h1m14 0h7m15 0h1m2 0h2m1 0h2m14 0h2m1 0h1m2 0h1m12 0h2m1 0h2m1 0h1m14 0h7m16 0h5m14 0h8m14 0h6m1 0h1M5 15h2m2 0h3m2 0h3m12 0h2m2 0h1m17 0h2m20 0h2m21 0h4m33 0h4m19 0h3m18 0h1m1 0h2m15 0h1m3 0h1m17 0h1m2 0h2m18 0h1m15 0h3m1 0h2m1 0h2m14 0h1m3 0h1m17 0h1m2 0h2m18 0h1m15 0h3m1 0h2m1 0h2m15 0h2m1 0h1m19 0h2m1 0h1m14 0h1m3 0h2M10 16h1m4 0h1m12 0h2m4 0h1m17 0h1m21 0h1m24 0h1m80 0h1m37 0h1m22 0h1m16 0h1m2 0h1m3 0h1m36 0h1m22 0h1m16 0h1m2 0h1m3 0h1m14 0h3m21 0h2m20 0h3M10 17h1m41 0h1m21 0h1m290 0h2m21 0h2m20 0h2"/><path stroke="#757575" d="M10 7h1m18 0h1m85 0h2m39 0h4m18 0h2m17 0h4m39 0h2m39 0h4m39 0h2m83 0h2M9 8h1m1 0h1m18 0h2m18 0h2m1 0h2m18 0h3m18 0h3m17 0h5m16 0h4m16 0h5m17 0h4m16 0h4m17 0h3m17 0h4m19 0h1m19 0h4m17 0h3m17 0h4m19 0h1m22 0h1m1 0h1m17 0h3m18 0h2M9 9h3m17 0h2m1 0h2m17 0h2m2 0h1m14 0h3m2 0h2m17 0h1m1 0h2m16 0h1m1 0h3m15 0h6m15 0h1m1 0h1m1 0h2m15 0h3m1 0h2m14 0h3m1 0h1m16 0h4m17 0h2m1 0h1m18 0h3m1 0h2m14 0h3m1 0h1m16 0h4m17 0h2m1 0h1m18 0h3m1 0h2m14 0h6m18 0h3m18 0h2M10 10h1m1 0h2m16 0h1m2 0h2m15 0h6m14 0h7m15 0h2m2 0h3m14 0h1m1 0h1m1 0h2m19 0h2m15 0h1m1 0h4m15 0h1m2 0h2m15 0h2m1 0h2m16 0h2m1 0h1m17 0h3m1 0h3m14 0h2m1 0h3m1 0h1m13 0h2m1 0h2m16 0h2m1 0h1m17 0h3m1 0h3m14 0h2m1 0h3m1 0h1m13 0h2m3 0h1m15 0h5m16 0h3m2 0h1M9 11h2m2 0h1m16 0h1m1 0h3m17 0h1m1 0h2m17 0h1m1 0h2m14 0h1m1 0h3m1 0h2m14 0h6m16 0h5m16 0h2m18 0h2m1 0h1m17 0h2m1 0h2m15 0h2m1 0h3m15 0h2m2 0h3m14 0h3m2 0h2m15 0h2m1 0h2m15 0h2m1 0h3m15 0h2m2 0h3m14 0h3m2 0h2m14 0h3m1 0h1m17 0h1m19 0h2m1 0h1m1 0h1M8 12h2m1 0h3m16 0h4m18 0h4m17 0h4m15 0h2m1 0h3m14 0h1m1 0h1m19 0h3m19 0h2m20 0h3m18 0h2m16 0h6m16 0h3m18 0h2m1 0h1m19 0h2m16 0h6m16 0h3m18 0h2m1 0h1m16 0h5m16 0h4m1 0h1m16 0h5M9 13h4m17 0h4m18 0h3m18 0h2m21 0h1m37 0h3m19 0h2m20 0h1m1 0h1m20 0h1m19 0h2m38 0h3m21 0h1m19 0h2m38 0h3m18 0h2m18 0h4m17 0h4M10 14h2m167 0h1"/><path stroke="#7a7a7a" d="M10 8h1m18 0h1m339 0h1M31 9h1m18 0h1m2 0h2m18 0h2m20 0h1m19 0h1m40 0h1m1 0h1m20 0h1m19 0h1m40 0h1m42 0h1m40 0h1M11 10h1m19 0h2m61 0h2m18 0h1m1 0h1m18 0h3m18 0h1m20 0h2m19 0h1m20 0h1m21 0h1m19 0h1m3 0h1m16 0h1m20 0h1m21 0h1m19 0h1m3 0h1m16 0h3m40 0h2M11 11h2m18 0h1m21 0h1m20 0h1m17 0h1m3 0h1m81 0h1m20 0h1m19 0h1m20 0h2m20 0h2m19 0h1m19 0h1m20 0h2m20 0h2m19 0h1m19 0h3m18 0h1m1 0h1M10 12h1m102 0h1m87 0h1m60 0h1m22 0h1m60 0h1m42 0h1m-211 1h1"/></svg>