<svg xmlns="http://www.w3.org/2000/svg" viewBox="0 -0.5 38 6" shape-rendering="crispEdges"><path stroke="#e30000" d="M0 0h36M0 1h36M2 2h4m30 0h2M2 3h4m30 0h2M0 4h36M0 5h36"/><path stroke="#e62020" d="M6 2h4M6 3h4"/><path stroke="#eb3131" d="M10 2h4m-4 1h4"/><path stroke="#eb4b4b" d="M14 2h4m-4 1h4"/><path stroke="#f06262" d="M18 2h4m12 0h2M18 3h4m12 0h2"/><path stroke="#f07f7f" d="M22 2h2m-2 1h2"/><path stroke="#f09090" d="M24 2h2m-2 1h2"/><path stroke="#f0afaf" d="M26 2h2m-2 1h2"/><path stroke="#f0c2c2" d="M28 2h6m-6 1h6"/></svg>