<svg xmlns="http://www.w3.org/2000/svg" viewBox="0 -0.5 68 34" shape-rendering="crispEdges"><path stroke="gray" d="M7 0h5M4 1h3M2 2h2M1 7h1M1 8h1M1 25h1m-1 1h1m0 5h2m0 1h3m0 1h5"/><path stroke="#999" d="M12 0h1M7 5h5M4 6h8M2 7h10M2 8h10M4 9h2m-6 3h1m-1 9h1m3 3h2m-4 1h10M2 26h10m-8 1h8m-5 1h5m0 5h1"/><path stroke="#848484" d="M7 1h5M4 2h3M2 3h2M2 30h2m0 1h3m0 1h5"/><path stroke="#9c9c9c" d="M12 1h1m-1 13h1m-1 5h1m-1 13h1"/><path stroke="#8a8a8a" d="M7 2h5M4 3h3M2 4h2M2 29h2m0 1h3m0 1h5"/><path stroke="#a0a0a0" d="M12 2h1m-1 11h1m-1 7h1m-1 11h1"/><path stroke="#666" d="M1 3h1M1 30h1"/><path stroke="#8f8f8f" d="M7 3h5M4 4h3M2 5h2m-2 5h1M2 23h1m-1 5h2m0 1h3m0 1h5"/><path stroke="#a4a4a4" d="M12 3h1m-1 9h1m-1 9h1m-1 9h1"/><path stroke="#6c6c6c" d="M1 4h1M1 29h1"/><path stroke="#939393" d="M7 4h5M4 5h3M2 6h2M2 9h2M2 24h2m-2 3h2m0 1h3m0 1h5"/><path stroke="#a7a7a7" d="M12 4h1m-1 7h1m-1 11h1m-1 7h1"/><path stroke="#737373" d="M1 5h1m-1 5h1M1 23h1m-1 5h1"/><path stroke="#ababab" d="M12 5h1m-1 5h1m-1 13h1m-1 5h1"/><path stroke="#797979" d="M1 6h1M1 9h1M1 24h1m-1 3h1"/><path stroke="#afafaf" d="M12 6h1m-1 3h1m-1 15h1m-1 3h1"/><path stroke="#ac2d26" d="M13 6h1m-1 1h2m-2 1h2m-3 7h1m-1 1h2m-2 1h1m42 0h11m-18 1h14m-20 1h14m-21 1h14m-21 1h15m-21 1h14m-23 3h2m-2 1h1"/><path stroke="#b3b3b3" d="M12 7h1m-1 1h1M6 9h5m-8 1h3m-5 1h2m-3 5h1m-1 1h1m0 5h2m0 1h3m29 0h29M6 24h5m2 0h5m5 0h12m-23 1h1m-1 1h1"/><path stroke="#ccc" d="M11 9h1m1 1h1m10 0h1m-12 1h1m12 0h1m-14 1h1m14 0h1m-16 1h1m16 0h1M6 14h5m2 0h1m18 0h1M5 15h6m2 0h1m20 0h1M1 16h10m24 0h17m14 0h1M1 17h10m3 0h41m11 0h1M3 18h8m2 0h35m14 0h5M6 19h5m2 0h29m14 0h10m-53 1h22m14 0h17m-53 1h15m15 0h22m-52 1h9m42 1h1m-54 1h1"/><path stroke="#bfbfbf" d="M13 9h12m0 1h2m0 1h2m0 1h2m0 1h2m0 1h2m0 1h17m0 1h9m-25 6h29m-52 1h5m11 0h6"/><path stroke="#b8b8b8" d="M6 10h5m-6 1h1m-5 1h2m-2 9h2m0 1h3m0 1h5"/><path stroke="#cfcfcf" d="M11 10h1m-1 13h1"/><path stroke="#262626" d="M14 10h10"/><path stroke="#b6b6b6" d="M3 11h1"/><path stroke="#b7b7b7" d="M4 11h1"/><path stroke="#bdbdbd" d="M6 11h5m-6 1h1m-5 1h2m-2 7h2m0 1h3m0 1h5"/><path stroke="#d3d3d3" d="M11 11h1m-1 11h1"/><path stroke="#282828" d="M14 11h12"/><path stroke="#bbb" d="M3 12h1"/><path stroke="#bcbcbc" d="M4 12h1"/><path stroke="#c2c2c2" d="M6 12h5m-6 1h1m-5 1h2m-2 5h2m0 1h3m0 1h5"/><path stroke="#d7d7d7" d="M11 12h1m-1 9h1"/><path stroke="#2a2a2a" d="M14 12h14"/><path stroke="#9f9f9f" d="M0 13h1m-1 7h1"/><path stroke="silver" d="M3 13h1"/><path stroke="#c1c1c1" d="M4 13h1"/><path stroke="#c7c7c7" d="M6 13h5m-6 1h1m-5 1h2m-2 3h2m0 1h3m0 1h5"/><path stroke="#dadada" d="M11 13h1m-1 7h1"/><path stroke="#2c2c2c" d="M14 13h16"/><path stroke="#a5a5a5" d="M0 14h1m-1 5h1"/><path stroke="#c5c5c5" d="M3 14h1"/><path stroke="#c6c6c6" d="M4 14h1"/><path stroke="#dedede" d="M11 14h1m-1 5h1"/><path stroke="#2e2e2e" d="M14 14h18"/><path stroke="#acacac" d="M0 15h1m-1 3h1"/><path stroke="#cacaca" d="M3 15h1"/><path stroke="#cbcbcb" d="M4 15h1"/><path stroke="#e2e2e2" d="M11 15h1m-1 3h1"/><path stroke="#303030" d="M14 15h20"/><path stroke="#e6e6e6" d="M11 16h1m-1 1h1m54 2h1m-1 1h1"/><path stroke="#333" d="M14 16h21"/><path stroke="#932721" d="M61 16h5m-53 1h1m-2 1h1m5 5h11m-15 3h1m-2 1h1"/><path stroke="#d4d4d4" d="M67 17h1m-3 5h1"/><path stroke="#ddd" d="M67 18h1m-3 3h1"/><path stroke="#7f211c" d="M18 24h5"/></svg>