<svg xmlns="http://www.w3.org/2000/svg" viewBox="0 -0.5 840 42" shape-rendering="crispEdges"><path stroke="#666" d="M312 0h4m-4 1h4M58 2h2m90 0h2m74 0h2m6 0h8m32 0h6m30 0h4m86 0h6m32 0h6m30 0h8m86 0h6m32 0h6m30 0h8M58 3h2m90 0h2m74 0h2m6 0h8m32 0h6m30 0h4m86 0h6m32 0h6m30 0h8m86 0h6m32 0h6m30 0h8M18 4h4m2 0h4m28 0h6m6 0h2m36 0h6m30 0h2m2 0h2m2 0h4m30 0h4m4 0h4m28 0h8m2 0h8m26 0h8m2 0h2m28 0h4m4 0h6m24 0h4m4 0h6m36 0h4m6 0h2m30 0h2m2 0h4m28 0h2m4 0h2m46 0h2m34 0h4m6 0h2m30 0h2m2 0h4m28 0h2m4 0h2m46 0h2m30 0h14m34 0h4m32 0h14M18 5h4m2 0h4m28 0h6m6 0h2m36 0h6m30 0h2m2 0h2m2 0h4m30 0h4m4 0h4m28 0h8m2 0h8m26 0h8m2 0h2m28 0h4m4 0h6m24 0h4m4 0h6m36 0h4m6 0h2m30 0h2m2 0h4m28 0h2m4 0h2m46 0h2m34 0h4m6 0h2m30 0h2m2 0h4m28 0h2m4 0h2m46 0h2m30 0h14m34 0h4m32 0h14M14 6h6m2 0h8m22 0h16m2 0h4m22 0h12m6 0h2m26 0h4m6 0h2m2 0h2m24 0h10m2 0h4m22 0h2m2 0h2m4 0h2m8 0h2m22 0h6m8 0h6m20 0h4m8 0h10m20 0h18m24 0h12m6 0h2m26 0h6m4 0h2m28 0h2m6 0h8m2 0h2m20 0h2m12 0h4m24 0h12m6 0h2m26 0h6m4 0h2m28 0h2m6 0h8m2 0h2m20 0h2m12 0h4m30 0h14m26 0h18m22 0h14m2 0h2M14 7h6m2 0h8m22 0h16m2 0h4m22 0h12m6 0h2m26 0h4m6 0h2m2 0h2m24 0h10m2 0h4m22 0h2m2 0h2m4 0h2m8 0h2m22 0h6m8 0h6m20 0h4m8 0h10m20 0h18m24 0h12m6 0h2m26 0h6m4 0h2m28 0h2m6 0h8m2 0h2m20 0h2m12 0h4m24 0h12m6 0h2m26 0h6m4 0h2m28 0h2m6 0h8m2 0h2m20 0h2m12 0h4m30 0h14m26 0h18m22 0h14m2 0h2M10 8h8m8 0h4m20 0h4m8 0h6m6 0h2m20 0h10m8 0h2m18 0h10m8 0h4m2 0h2m28 0h4m2 0h4m2 0h4m14 0h8m14 0h4m24 0h2m8 0h8m16 0h6m16 0h2m18 0h4m4 0h4m6 0h6m2 0h2m14 0h4m8 0h2m6 0h2m22 0h10m4 0h4m22 0h6m8 0h12m16 0h4m2 0h18m18 0h4m8 0h2m6 0h2m22 0h10m4 0h4m22 0h6m8 0h12m16 0h4m2 0h18m22 0h8m4 0h10m20 0h6m2 0h14m16 0h6m2 0h4m8 0h6M10 9h8m8 0h4m20 0h4m8 0h6m6 0h2m20 0h10m8 0h2m18 0h10m8 0h4m2 0h2m28 0h4m2 0h4m2 0h4m14 0h8m14 0h4m24 0h2m8 0h8m16 0h6m16 0h2m18 0h4m4 0h4m6 0h6m2 0h2m14 0h4m8 0h2m6 0h2m22 0h10m4 0h4m22 0h6m8 0h12m16 0h4m2 0h18m18 0h4m8 0h2m6 0h2m22 0h10m4 0h4m22 0h6m8 0h12m16 0h4m2 0h18m22 0h8m4 0h10m20 0h6m2 0h14m16 0h6m2 0h4m8 0h6M8 10h8m10 0h10m14 0h4m20 0h4m14 0h4m16 0h6m16 0h8m8 0h4m4 0h4m16 0h4m6 0h2m10 0h8m8 0h2m4 0h4m14 0h6m16 0h4m18 0h2m14 0h2m22 0h4m16 0h4m14 0h4m4 0h4m6 0h10m16 0h4m18 0h2m16 0h4m20 0h6m10 0h10m26 0h6m2 0h2m2 0h4m10 0h10m16 0h4m18 0h2m16 0h4m20 0h6m10 0h10m26 0h6m2 0h2m2 0h4m18 0h8m12 0h6m18 0h6m32 0h6m16 0h4M8 11h8m10 0h10m14 0h4m20 0h4m14 0h4m16 0h6m16 0h8m8 0h4m4 0h4m16 0h4m6 0h2m10 0h8m8 0h2m4 0h4m14 0h6m16 0h4m18 0h2m14 0h2m22 0h4m16 0h4m14 0h4m4 0h4m6 0h10m16 0h4m18 0h2m16 0h4m20 0h6m10 0h10m26 0h6m2 0h2m2 0h4m10 0h10m16 0h4m18 0h2m16 0h4m20 0h6m10 0h10m26 0h6m2 0h2m2 0h4m18 0h8m12 0h6m18 0h6m32 0h6m16 0h4M8 12h6m16 0h4m2 0h2m10 0h4m20 0h4m16 0h2m18 0h4m16 0h4m22 0h4m16 0h4m22 0h4m8 0h2m6 0h2m18 0h2m12 0h8m18 0h2m16 0h2m22 0h4m50 0h4m24 0h4m14 0h4m16 0h4m2 0h2m12 0h4m22 0h6m14 0h2m20 0h6m8 0h4m24 0h4m14 0h4m16 0h4m2 0h2m12 0h4m22 0h6m14 0h2m20 0h6m10 0h8m22 0h2m14 0h6m18 0h4m16 0h2m18 0h4M8 13h6m16 0h4m2 0h2m10 0h4m20 0h4m16 0h2m18 0h4m16 0h4m22 0h4m16 0h4m22 0h4m8 0h2m6 0h2m18 0h2m12 0h8m18 0h2m16 0h2m22 0h4m50 0h4m24 0h4m14 0h4m16 0h4m2 0h2m12 0h4m22 0h6m14 0h2m20 0h6m8 0h4m24 0h4m14 0h4m16 0h4m2 0h2m12 0h4m22 0h6m14 0h2m20 0h6m10 0h8m22 0h2m14 0h6m18 0h4m16 0h2m18 0h4M6 14h4m26 0h2m8 0h6m18 0h10m10 0h4m24 0h4m8 0h2m30 0h2m12 0h6m22 0h2m8 0h2m28 0h2m12 0h2m4 0h2m18 0h4m10 0h8m20 0h2m4 0h2m8 0h4m24 0h2m8 0h4m24 0h4m2 0h2m10 0h4m16 0h8m12 0h2m26 0h6m12 0h4m18 0h6m8 0h4m24 0h4m2 0h2m10 0h4m16 0h8m12 0h2m26 0h6m12 0h4m18 0h6m8 0h2m30 0h4m12 0h6m18 0h4m12 0h6m18 0h4M6 15h4m26 0h2m8 0h6m18 0h10m10 0h4m24 0h4m8 0h2m30 0h2m12 0h6m22 0h2m8 0h2m28 0h2m12 0h2m4 0h2m18 0h4m10 0h8m20 0h2m4 0h2m8 0h4m24 0h2m8 0h4m24 0h4m2 0h2m10 0h4m16 0h8m12 0h2m26 0h6m12 0h4m18 0h6m8 0h4m24 0h4m2 0h2m10 0h4m16 0h8m12 0h2m26 0h6m12 0h4m18 0h6m8 0h2m30 0h4m12 0h6m18 0h4m12 0h6m18 0h4M6 16h6m26 0h2m6 0h6m26 0h4m8 0h4m24 0h2m2 0h2m6 0h4m28 0h4m6 0h8m22 0h4m10 0h4m24 0h2m10 0h2m26 0h4m8 0h4m4 0h2m26 0h2m6 0h6m24 0h2m8 0h4m24 0h8m6 0h2m2 0h4m20 0h4m12 0h4m24 0h6m10 0h6m20 0h6m6 0h4m24 0h8m6 0h2m2 0h4m20 0h4m12 0h4m24 0h6m10 0h6m20 0h6m6 0h2m30 0h6m8 0h4m22 0h4m12 0h6m20 0h6M6 17h6m26 0h2m6 0h6m26 0h4m8 0h4m24 0h2m2 0h2m6 0h4m28 0h4m6 0h8m22 0h4m10 0h4m24 0h2m10 0h2m26 0h4m8 0h4m4 0h2m26 0h2m6 0h6m24 0h2m8 0h4m24 0h8m6 0h2m2 0h4m20 0h4m12 0h4m24 0h6m10 0h6m20 0h6m6 0h4m24 0h8m6 0h2m2 0h4m20 0h4m12 0h4m24 0h6m10 0h6m20 0h6m6 0h2m30 0h6m8 0h4m22 0h4m12 0h6m20 0h6M4 18h6m26 0h4m6 0h4m28 0h2m10 0h4m28 0h2m6 0h4m30 0h4m4 0h6m24 0h6m8 0h4m24 0h4m8 0h2m26 0h8m40 0h2m6 0h2m26 0h4m38 0h6m6 0h2m26 0h4m12 0h4m26 0h4m10 0h2m28 0h4m34 0h6m6 0h2m26 0h4m12 0h4m26 0h4m10 0h2m28 0h4m4 0h2m30 0h4m6 0h4m26 0h4m12 0h2m26 0h2M4 19h6m26 0h4m6 0h4m28 0h2m10 0h4m28 0h2m6 0h4m30 0h4m4 0h6m24 0h6m8 0h4m24 0h4m8 0h2m26 0h8m40 0h2m6 0h2m26 0h4m38 0h6m6 0h2m26 0h4m12 0h4m26 0h4m10 0h2m28 0h4m34 0h6m6 0h2m26 0h4m12 0h4m26 0h4m10 0h2m28 0h4m4 0h2m30 0h4m6 0h4m26 0h4m12 0h2m26 0h2M8 20h4m20 0h6m8 0h4m26 0h4m8 0h6m28 0h4m4 0h4m32 0h2m6 0h2m28 0h4m8 0h4m22 0h6m8 0h6m28 0h2m6 0h2m28 0h4m10 0h4m22 0h4m10 0h4m26 0h4m6 0h4m26 0h4m6 0h6m28 0h4m8 0h4m30 0h2m6 0h4m26 0h4m6 0h4m26 0h4m6 0h6m28 0h4m8 0h4m30 0h2m6 0h6m22 0h4m8 0h2m28 0h4m10 0h2m30 0h2M8 21h4m20 0h6m8 0h4m26 0h4m8 0h6m28 0h4m4 0h4m32 0h2m6 0h2m28 0h4m8 0h4m22 0h6m8 0h6m28 0h2m6 0h2m28 0h4m10 0h4m22 0h4m10 0h4m26 0h4m6 0h4m26 0h4m6 0h6m28 0h4m8 0h4m30 0h2m6 0h4m26 0h4m6 0h4m26 0h4m6 0h6m28 0h4m8 0h4m30 0h2m6 0h6m22 0h4m8 0h2m28 0h4m10 0h2m30 0h2M6 22h6m22 0h4m8 0h6m36 0h6m28 0h4m4 0h6m24 0h4m8 0h2m30 0h4m6 0h4m30 0h2m8 0h4m28 0h2m8 0h2m26 0h2m12 0h6m20 0h4m10 0h2m28 0h4m6 0h4m26 0h4m6 0h2m32 0h4m8 0h4m28 0h2m8 0h2m28 0h4m6 0h4m26 0h4m6 0h2m32 0h4m8 0h4m28 0h2m8 0h4m24 0h4m8 0h2m30 0h4m6 0h2M6 23h6m22 0h4m8 0h6m36 0h6m28 0h4m4 0h6m24 0h4m8 0h2m30 0h4m6 0h4m30 0h2m8 0h4m28 0h2m8 0h2m26 0h2m12 0h6m20 0h4m10 0h2m28 0h4m6 0h4m26 0h4m6 0h2m32 0h4m8 0h4m28 0h2m8 0h2m28 0h4m6 0h4m26 0h4m6 0h2m32 0h4m8 0h4m28 0h2m8 0h4m24 0h4m8 0h2m30 0h4m6 0h2M6 24h4m28 0h2m6 0h8m24 0h4m8 0h6m28 0h2m4 0h6m24 0h4m8 0h4m28 0h2m6 0h6m30 0h2m8 0h4m26 0h4m6 0h6m20 0h6m10 0h4m26 0h6m4 0h4m26 0h6m8 0h2m26 0h4m6 0h4m32 0h2m8 0h6m24 0h6m4 0h4m26 0h6m8 0h2m26 0h4m6 0h4m32 0h2m8 0h6m24 0h6m8 0h2m24 0h4m12 0h4m26 0h2m6 0h2m26 0h2m4 0h4M6 25h4m28 0h2m6 0h8m24 0h4m8 0h6m28 0h2m4 0h6m24 0h4m8 0h4m28 0h2m6 0h6m30 0h2m8 0h4m26 0h4m6 0h6m20 0h6m10 0h4m26 0h6m4 0h4m26 0h6m8 0h2m26 0h4m6 0h4m32 0h2m8 0h6m24 0h6m4 0h4m26 0h6m8 0h2m26 0h4m6 0h4m32 0h2m8 0h6m24 0h6m8 0h2m24 0h4m12 0h4m26 0h2m6 0h2m26 0h2m4 0h4M8 26h2m26 0h4m6 0h2m2 0h4m24 0h4m8 0h6m20 0h6m8 0h4m26 0h4m10 0h6m20 0h6m8 0h4m30 0h2m8 0h4m22 0h4m14 0h4m18 0h6m10 0h4m24 0h6m8 0h10m18 0h6m10 0h2m24 0h4m8 0h4m30 0h2m10 0h4m22 0h8m6 0h10m18 0h6m10 0h2m24 0h4m8 0h4m30 0h2m10 0h4m22 0h8m8 0h2m28 0h2m10 0h4m26 0h2m6 0h2m4 0h2m20 0h8M8 27h2m26 0h4m6 0h2m2 0h4m24 0h4m8 0h6m20 0h6m8 0h4m26 0h4m10 0h6m20 0h6m8 0h4m30 0h2m8 0h4m22 0h4m14 0h4m18 0h6m10 0h4m24 0h6m8 0h10m18 0h6m10 0h2m24 0h4m8 0h4m30 0h2m10 0h4m22 0h8m6 0h10m18 0h6m10 0h2m24 0h4m8 0h4m30 0h2m10 0h4m22 0h8m8 0h2m28 0h2m10 0h4m26 0h2m6 0h2m4 0h2m20 0h8M8 28h2m24 0h4m12 0h4m24 0h4m8 0h10m18 0h2m12 0h6m22 0h2m14 0h6m18 0h4m12 0h2m22 0h8m10 0h4m18 0h6m16 0h4m18 0h2m16 0h2m26 0h2m14 0h4m20 0h4m12 0h2m4 0h2m18 0h2m12 0h2m2 0h2m22 0h4m12 0h2m22 0h6m14 0h4m20 0h4m12 0h2m4 0h2m18 0h2m12 0h2m2 0h2m22 0h4m12 0h2m22 0h6m12 0h2m18 0h2m6 0h2m14 0h2m18 0h4m4 0h2m10 0h4m22 0h2M8 29h2m24 0h4m12 0h4m24 0h4m8 0h10m18 0h2m12 0h6m22 0h2m14 0h6m18 0h4m12 0h2m22 0h8m10 0h4m18 0h6m16 0h4m18 0h2m16 0h2m26 0h2m14 0h4m20 0h4m12 0h2m4 0h2m18 0h2m12 0h2m2 0h2m22 0h4m12 0h2m22 0h6m14 0h4m20 0h4m12 0h2m4 0h2m18 0h2m12 0h2m2 0h2m22 0h4m12 0h2m22 0h6m12 0h2m18 0h2m6 0h2m14 0h2m18 0h4m4 0h2m10 0h4m22 0h2M6 30h2m28 0h2m14 0h4m16 0h10m8 0h4m2 0h4m18 0h2m14 0h10m12 0h6m14 0h6m20 0h2m12 0h6m12 0h8m16 0h6m16 0h6m16 0h4m16 0h6m18 0h6m12 0h8m12 0h4m20 0h4m14 0h8m18 0h2m14 0h4m6 0h2m10 0h8m10 0h4m22 0h4m14 0h4m20 0h4m14 0h8m18 0h2m14 0h4m6 0h2m10 0h8m10 0h4m22 0h4m14 0h6m14 0h4m4 0h2m14 0h2m18 0h8m14 0h4m22 0h2M6 31h2m28 0h2m14 0h4m16 0h10m8 0h4m2 0h4m18 0h2m14 0h10m12 0h6m14 0h6m20 0h2m12 0h6m12 0h8m16 0h6m16 0h6m16 0h4m16 0h6m18 0h6m12 0h8m12 0h4m20 0h4m14 0h8m18 0h2m14 0h4m6 0h2m10 0h8m10 0h4m22 0h4m14 0h4m20 0h4m14 0h8m18 0h2m14 0h4m6 0h2m10 0h8m10 0h4m22 0h4m14 0h6m14 0h4m4 0h2m14 0h2m18 0h8m14 0h4m22 0h2M6 32h2m6 0h2m18 0h2m18 0h2m6 0h2m8 0h4m20 0h6m6 0h10m16 0h4m2 0h4m8 0h6m20 0h4m2 0h2m2 0h6m24 0h10m4 0h8m22 0h2m2 0h4m2 0h2m2 0h6m20 0h6m8 0h4m2 0h6m18 0h8m8 0h8m16 0h2m6 0h6m8 0h4m18 0h4m10 0h2m4 0h4m16 0h2m4 0h4m6 0h12m10 0h8m10 0h2m6 0h4m16 0h2m6 0h6m8 0h4m18 0h4m10 0h2m4 0h4m16 0h2m4 0h4m6 0h12m10 0h8m10 0h2m6 0h4m16 0h4m14 0h8m16 0h8m14 0h2m20 0h2m16 0h6M6 33h2m6 0h2m18 0h2m18 0h2m6 0h2m8 0h4m20 0h6m6 0h10m16 0h4m2 0h4m8 0h6m20 0h4m2 0h2m2 0h6m24 0h10m4 0h8m22 0h2m2 0h4m2 0h2m2 0h6m20 0h6m8 0h4m2 0h6m18 0h8m8 0h8m16 0h2m6 0h6m8 0h4m18 0h4m10 0h2m4 0h4m16 0h2m4 0h4m6 0h12m10 0h8m10 0h2m6 0h4m16 0h2m6 0h6m8 0h4m18 0h4m10 0h2m4 0h4m16 0h2m4 0h4m6 0h12m10 0h8m10 0h2m6 0h4m16 0h4m14 0h8m16 0h8m14 0h2m20 0h2m16 0h6M6 34h4m2 0h6m6 0h4m4 0h4m18 0h2m6 0h12m26 0h2m6 0h6m26 0h6m8 0h2m24 0h18m2 0h4m18 0h14m28 0h20m22 0h2m2 0h14m26 0h6m6 0h6m20 0h4m2 0h16m22 0h2m6 0h10m20 0h10m6 0h4m22 0h4m2 0h4m2 0h4m28 0h4m2 0h16m22 0h2m6 0h10m20 0h10m6 0h4m22 0h4m2 0h4m2 0h4m28 0h2m8 0h2m4 0h2m2 0h2m22 0h4m8 0h8m20 0h10m8 0h4M6 35h4m2 0h6m6 0h4m4 0h4m18 0h2m6 0h12m26 0h2m6 0h6m26 0h6m8 0h2m24 0h18m2 0h4m18 0h14m28 0h20m22 0h2m2 0h14m26 0h6m6 0h6m20 0h4m2 0h16m22 0h2m6 0h10m20 0h10m6 0h4m22 0h4m2 0h4m2 0h4m28 0h4m2 0h16m22 0h2m6 0h10m20 0h10m6 0h4m22 0h4m2 0h4m2 0h4m28 0h2m8 0h2m4 0h2m2 0h2m22 0h4m8 0h8m20 0h10m8 0h4M8 36h4m2 0h6m4 0h6m2 0h4m18 0h2m6 0h4m36 0h2m4 0h2m36 0h2m36 0h4m12 0h2m22 0h14m32 0h8m30 0h14m30 0h6m2 0h4m28 0h2m6 0h6m28 0h4m2 0h2m4 0h4m28 0h2m6 0h2m30 0h4m2 0h10m26 0h2m6 0h6m28 0h4m2 0h2m4 0h4m28 0h2m6 0h2m30 0h4m2 0h10m22 0h8m2 0h8m34 0h10m26 0h6m4 0h4M8 37h4m2 0h6m4 0h6m2 0h4m18 0h2m6 0h4m36 0h2m4 0h2m36 0h2m36 0h4m12 0h2m22 0h14m32 0h8m30 0h14m30 0h6m2 0h4m28 0h2m6 0h6m28 0h4m2 0h2m4 0h4m28 0h2m6 0h2m30 0h4m2 0h10m26 0h2m6 0h6m28 0h4m2 0h2m4 0h4m28 0h2m6 0h2m30 0h4m2 0h10m22 0h8m2 0h8m34 0h10m26 0h6m4 0h4M20 38h6m4 0h4m22 0h6m40 0h8m38 0h6m32 0h2m164 0h4m2 0h4m40 0h2m74 0h6m36 0h4m4 0h4m38 0h2m74 0h6m36 0h4m4 0h4m24 0h8m6 0h2m32 0h6m42 0h4M20 39h6m4 0h4m22 0h6m40 0h8m38 0h6m32 0h2m164 0h4m2 0h4m40 0h2m74 0h6m36 0h4m4 0h4m38 0h2m74 0h6m36 0h4m4 0h4m24 0h8m6 0h2m32 0h6m42 0h4m-6 1h4m-4 1h4"/><path stroke="#6b6b6b" d="M314 2h2m-2 1h2M144 4h2m2 0h2m82 0h2m42 0h2m34 0h4m84 0h6m34 0h2m34 0h4m88 0h6m34 0h2m34 0h4M144 5h2m2 0h2m82 0h2m42 0h2m34 0h4m84 0h6m34 0h2m34 0h4m88 0h6m34 0h2m34 0h4M20 6h2m46 0h2m38 0h6m32 0h6m40 0h2m32 0h4m6 0h4m30 0h2m2 0h4m30 0h2m4 0h2m84 0h6m34 0h4m32 0h2m2 0h2m86 0h6m34 0h4m32 0h2m2 0h2m174 0h2M20 7h2m46 0h2m38 0h6m32 0h6m40 0h2m32 0h4m6 0h4m30 0h2m2 0h4m30 0h2m4 0h2m84 0h6m34 0h4m32 0h2m2 0h2m86 0h6m34 0h4m32 0h2m2 0h2m174 0h2M18 8h8m28 0h8m6 0h6m32 0h8m30 0h2m2 0h4m4 0h2m22 0h8m4 0h2m4 0h2m26 0h6m6 0h2m24 0h4m2 0h2m4 0h2m36 0h10m24 0h4m4 0h2m2 0h2m6 0h2m20 0h2m2 0h4m2 0h2m74 0h2m4 0h2m32 0h2m40 0h2m2 0h4m2 0h2m74 0h2m4 0h2m32 0h2m48 0h4m36 0h2m36 0h2m4 0h8M18 9h8m28 0h8m6 0h6m32 0h8m30 0h2m2 0h4m4 0h2m22 0h8m4 0h2m4 0h2m26 0h6m6 0h2m24 0h4m2 0h2m4 0h2m36 0h10m24 0h4m4 0h2m2 0h2m6 0h2m20 0h2m2 0h4m2 0h2m74 0h2m4 0h2m32 0h2m40 0h2m2 0h4m2 0h2m74 0h2m4 0h2m32 0h2m48 0h4m36 0h2m36 0h2m4 0h8M16 10h2m2 0h6m28 0h6m2 0h6m2 0h4m22 0h12m34 0h4m8 0h4m24 0h2m2 0h2m2 0h2m2 0h4m20 0h4m4 0h2m2 0h2m4 0h4m26 0h6m4 0h8m18 0h8m4 0h6m2 0h2m26 0h8m2 0h2m4 0h4m20 0h4m2 0h4m4 0h2m24 0h10m4 0h2m30 0h2m6 0h2m26 0h4m2 0h4m6 0h2m2 0h2m24 0h4m2 0h4m4 0h2m24 0h10m4 0h2m30 0h2m6 0h2m26 0h4m2 0h4m6 0h2m2 0h2m30 0h12m30 0h14m24 0h4m6 0h6M16 11h2m2 0h6m28 0h6m2 0h6m2 0h4m22 0h12m34 0h4m8 0h4m24 0h2m2 0h2m2 0h2m2 0h4m20 0h4m4 0h2m2 0h2m4 0h4m26 0h6m4 0h8m18 0h8m4 0h6m2 0h2m26 0h8m2 0h2m4 0h4m20 0h4m2 0h4m4 0h2m24 0h10m4 0h2m30 0h2m6 0h2m26 0h4m2 0h4m6 0h2m2 0h2m24 0h4m2 0h4m4 0h2m24 0h10m4 0h2m30 0h2m6 0h2m26 0h4m2 0h4m6 0h2m2 0h2m30 0h12m30 0h14m24 0h4m6 0h6M14 12h2m6 0h2m2 0h4m4 0h2m16 0h2m4 0h2m4 0h4m2 0h2m22 0h6m6 0h2m2 0h2m4 0h4m16 0h4m4 0h2m4 0h2m4 0h2m24 0h2m4 0h2m4 0h2m6 0h2m14 0h6m12 0h8m26 0h2m4 0h6m22 0h2m2 0h2m12 0h4m18 0h2m6 0h4m6 0h4m4 0h2m12 0h10m12 0h2m22 0h2m4 0h4m4 0h2m24 0h8m8 0h6m22 0h2m8 0h10m18 0h10m12 0h2m22 0h2m4 0h4m4 0h2m24 0h8m8 0h6m22 0h2m8 0h10m24 0h10m8 0h4m22 0h6m8 0h4m22 0h6m8 0h4M14 13h2m6 0h2m2 0h4m4 0h2m16 0h2m4 0h2m4 0h4m2 0h2m22 0h6m6 0h2m2 0h2m4 0h4m16 0h4m4 0h2m4 0h2m4 0h2m24 0h2m4 0h2m4 0h2m6 0h2m14 0h6m12 0h8m26 0h2m4 0h6m22 0h2m2 0h2m12 0h4m18 0h2m6 0h4m6 0h4m4 0h2m12 0h10m12 0h2m22 0h2m4 0h4m4 0h2m24 0h8m8 0h6m22 0h2m8 0h10m18 0h10m12 0h2m22 0h2m4 0h4m4 0h2m24 0h8m8 0h6m22 0h2m8 0h10m24 0h10m8 0h4m22 0h6m8 0h4m22 0h6m8 0h4M10 14h4m14 0h8m16 0h2m10 0h2m28 0h2m2 0h4m14 0h2m14 0h8m4 0h2m8 0h4m2 0h2m20 0h4m14 0h4m12 0h4m18 0h4m18 0h4m2 0h2m14 0h2m38 0h4m2 0h4m14 0h2m20 0h2m14 0h2m2 0h4m14 0h2m22 0h4m10 0h2m22 0h2m16 0h8m22 0h2m8 0h4m2 0h2m18 0h2m2 0h4m14 0h2m22 0h4m10 0h2m22 0h2m16 0h8m22 0h2m8 0h4m2 0h2m16 0h4m2 0h2m18 0h4m22 0h6m8 0h4m22 0h4M10 15h4m14 0h8m16 0h2m10 0h2m28 0h2m2 0h4m14 0h2m14 0h8m4 0h2m8 0h4m2 0h2m20 0h4m14 0h4m12 0h4m18 0h4m18 0h4m2 0h2m14 0h2m38 0h4m2 0h4m14 0h2m20 0h2m14 0h2m2 0h4m14 0h2m22 0h4m10 0h2m22 0h2m16 0h8m22 0h2m8 0h4m2 0h2m18 0h2m2 0h4m14 0h2m22 0h4m10 0h2m22 0h2m16 0h8m22 0h2m8 0h4m2 0h2m16 0h4m2 0h2m18 0h4m22 0h6m8 0h4m22 0h4M12 16h2m12 0h4m4 0h4m14 0h2m18 0h6m16 0h2m20 0h2m2 0h2m12 0h4m42 0h2m2 0h2m12 0h4m18 0h4m18 0h2m14 0h4m2 0h4m14 0h2m16 0h4m2 0h2m16 0h8m14 0h4m18 0h2m36 0h2m16 0h2m4 0h4m10 0h6m20 0h2m20 0h2m22 0h2m16 0h2m38 0h2m16 0h2m4 0h4m10 0h6m20 0h2m20 0h2m22 0h2m16 0h2m14 0h4m20 0h6m18 0h4m16 0h2m22 0h4m14 0h2M12 17h2m12 0h4m4 0h4m14 0h2m18 0h6m16 0h2m20 0h2m2 0h2m12 0h4m42 0h2m2 0h2m12 0h4m18 0h4m18 0h2m14 0h4m2 0h4m14 0h2m16 0h4m2 0h2m16 0h8m14 0h4m18 0h2m36 0h2m16 0h2m4 0h4m10 0h6m20 0h2m20 0h2m22 0h2m16 0h2m38 0h2m16 0h2m4 0h4m10 0h6m20 0h2m20 0h2m22 0h2m16 0h2m14 0h4m20 0h6m18 0h4m16 0h2m22 0h4m14 0h2M10 18h6m16 0h4m14 0h4m20 0h4m16 0h2m24 0h2m12 0h2m26 0h2m14 0h2m18 0h4m18 0h6m14 0h4m14 0h4m20 0h2m14 0h6m26 0h2m10 0h4m36 0h2m22 0h4m14 0h8m14 0h4m20 0h4m20 0h2m16 0h4m22 0h2m10 0h2m22 0h4m14 0h8m14 0h4m20 0h4m20 0h2m16 0h4m22 0h2m10 0h6m22 0h2m14 0h4m20 0h2m18 0h4m14 0h8m2 0h2M10 19h6m16 0h4m14 0h4m20 0h4m16 0h2m24 0h2m12 0h2m26 0h2m14 0h2m18 0h4m18 0h6m14 0h4m14 0h4m20 0h2m14 0h6m26 0h2m10 0h4m36 0h2m22 0h4m14 0h8m14 0h4m20 0h4m20 0h2m16 0h4m22 0h2m10 0h2m22 0h4m14 0h8m14 0h4m20 0h4m20 0h2m16 0h4m22 0h2m10 0h6m22 0h2m14 0h4m20 0h2m18 0h4m14 0h8m2 0h2M12 20h4m14 0h2m18 0h6m16 0h4m18 0h2m24 0h2m12 0h2m20 0h10m10 0h6m18 0h4m16 0h2m18 0h2m20 0h4m18 0h6m10 0h4m22 0h2m18 0h2m18 0h2m18 0h4m16 0h6m36 0h4m16 0h6m20 0h2m40 0h6m12 0h4m16 0h6m36 0h4m16 0h6m20 0h2m40 0h6m14 0h2m18 0h2m14 0h2m24 0h2m16 0h4m24 0h2M12 21h4m14 0h2m18 0h6m16 0h4m18 0h2m24 0h2m12 0h2m20 0h10m10 0h6m18 0h4m16 0h2m18 0h2m20 0h4m18 0h6m10 0h4m22 0h2m18 0h2m18 0h2m18 0h4m16 0h6m36 0h4m16 0h6m20 0h2m40 0h6m12 0h4m16 0h6m36 0h4m16 0h6m20 0h2m40 0h6m14 0h2m18 0h2m14 0h2m24 0h2m16 0h4m24 0h2M12 22h2m18 0h2m18 0h4m22 0h2m14 0h4m16 0h8m34 0h4m14 0h6m38 0h2m22 0h6m14 0h2m24 0h2m8 0h2m2 0h8m14 0h4m20 0h2m14 0h4m16 0h4m20 0h4m38 0h2m12 0h8m40 0h4m18 0h6m12 0h4m20 0h4m38 0h2m12 0h8m40 0h4m18 0h6m14 0h4m14 0h6m14 0h8m16 0h6m12 0h2m26 0h6M12 23h2m18 0h2m18 0h4m22 0h2m14 0h4m16 0h8m34 0h4m14 0h6m38 0h2m22 0h6m14 0h2m24 0h2m8 0h2m2 0h8m14 0h4m20 0h2m14 0h4m16 0h4m20 0h4m38 0h2m12 0h8m40 0h4m18 0h6m12 0h4m20 0h4m38 0h2m12 0h8m40 0h4m18 0h6m14 0h4m14 0h6m14 0h8m16 0h6m12 0h2m26 0h6M10 24h2m22 0h4m16 0h2m40 0h4m14 0h10m12 0h4m16 0h4m16 0h2m22 0h4m14 0h6m20 0h4m14 0h2m20 0h4m16 0h2m14 0h4m20 0h4m16 0h6m14 0h6m18 0h2m16 0h6m18 0h2m14 0h2m22 0h8m16 0h4m18 0h2m14 0h6m18 0h2m16 0h6m18 0h2m14 0h2m22 0h8m16 0h4m18 0h2m16 0h2m18 0h4m20 0h2m20 0h4m10 0h8m16 0h2m2 0h4M10 25h2m22 0h4m16 0h2m40 0h4m14 0h10m12 0h4m16 0h4m16 0h2m22 0h4m14 0h6m20 0h4m14 0h2m20 0h4m16 0h2m14 0h4m20 0h4m16 0h6m14 0h6m18 0h2m16 0h6m18 0h2m14 0h2m22 0h8m16 0h4m18 0h2m14 0h6m18 0h2m16 0h6m18 0h2m14 0h2m22 0h8m16 0h4m18 0h2m16 0h2m18 0h4m20 0h2m20 0h4m10 0h8m16 0h2m2 0h4M10 26h2m18 0h6m18 0h2m14 0h4m2 0h2m18 0h6m12 0h2m18 0h10m14 0h2m20 0h2m16 0h2m18 0h4m18 0h2m2 0h4m14 0h6m8 0h8m36 0h4m20 0h2m4 0h4m12 0h2m28 0h2m10 0h2m18 0h2m20 0h2m20 0h4m8 0h2m4 0h8m16 0h4m12 0h2m2 0h2m28 0h2m10 0h2m18 0h2m20 0h2m20 0h4m8 0h2m4 0h8m16 0h4m12 0h2m2 0h2m20 0h4m18 0h4m16 0h2m16 0h8m10 0h4m2 0h4M10 27h2m18 0h6m18 0h2m14 0h4m2 0h2m18 0h6m12 0h2m18 0h10m14 0h2m20 0h2m16 0h2m18 0h4m18 0h2m2 0h4m14 0h6m8 0h8m36 0h4m20 0h2m4 0h4m12 0h2m28 0h2m10 0h2m18 0h2m20 0h2m20 0h4m8 0h2m4 0h8m16 0h4m12 0h2m2 0h2m28 0h2m10 0h2m18 0h2m20 0h2m20 0h4m8 0h2m4 0h8m16 0h4m12 0h2m2 0h2m20 0h4m18 0h4m16 0h2m16 0h8m10 0h4m2 0h4M10 28h2m20 0h2m20 0h2m12 0h10m22 0h2m12 0h4m20 0h6m8 0h8m22 0h2m2 0h4m8 0h2m18 0h4m8 0h10m22 0h6m8 0h4m26 0h4m8 0h6m20 0h8m12 0h6m20 0h2m2 0h4m4 0h2m4 0h2m18 0h4m2 0h2m4 0h2m2 0h4m2 0h2m16 0h2m2 0h2m4 0h2m4 0h2m2 0h6m18 0h4m14 0h4m24 0h2m2 0h4m4 0h2m4 0h2m18 0h4m2 0h2m4 0h2m2 0h4m2 0h2m16 0h2m2 0h2m4 0h2m4 0h2m2 0h6m18 0h4m14 0h4m20 0h8m12 0h6m18 0h2m20 0h4m16 0h4m12 0h2m2 0h2M10 29h2m20 0h2m20 0h2m12 0h10m22 0h2m12 0h4m20 0h6m8 0h8m22 0h2m2 0h4m8 0h2m18 0h4m8 0h10m22 0h6m8 0h4m26 0h4m8 0h6m20 0h8m12 0h6m20 0h2m2 0h4m4 0h2m4 0h2m18 0h4m2 0h2m4 0h2m2 0h4m2 0h2m16 0h2m2 0h2m4 0h2m4 0h2m2 0h6m18 0h4m14 0h4m24 0h2m2 0h4m4 0h2m4 0h2m18 0h4m2 0h2m4 0h2m2 0h4m2 0h2m16 0h2m2 0h2m4 0h2m4 0h2m2 0h6m18 0h4m14 0h4m20 0h8m12 0h6m18 0h2m20 0h4m16 0h4m12 0h2m2 0h2M8 30h2m4 0h4m6 0h4m6 0h2m20 0h2m4 0h4m2 0h4m28 0h2m4 0h12m26 0h2m4 0h6m26 0h10m8 0h2m20 0h12m30 0h2m8 0h6m26 0h6m6 0h4m22 0h2m6 0h2m2 0h2m4 0h2m24 0h4m2 0h6m2 0h6m26 0h2m2 0h4m4 0h6m20 0h6m2 0h2m2 0h6m22 0h2m6 0h2m4 0h2m4 0h2m22 0h4m2 0h6m2 0h6m26 0h2m2 0h4m4 0h6m20 0h6m2 0h2m2 0h6m22 0h2m6 0h2m4 0h2m4 0h2m24 0h4m4 0h2m2 0h2m4 0h4m18 0h10m4 0h2m28 0h2m2 0h6m4 0h8M8 31h2m4 0h4m6 0h4m6 0h2m20 0h2m4 0h4m2 0h4m28 0h2m4 0h12m26 0h2m4 0h6m26 0h10m8 0h2m20 0h12m30 0h2m8 0h6m26 0h6m6 0h4m22 0h2m6 0h2m2 0h2m4 0h2m24 0h4m2 0h6m2 0h6m26 0h2m2 0h4m4 0h6m20 0h6m2 0h2m2 0h6m22 0h2m6 0h2m4 0h2m4 0h2m22 0h4m2 0h6m2 0h6m26 0h2m2 0h4m4 0h6m20 0h6m2 0h2m2 0h6m22 0h2m6 0h2m4 0h2m4 0h2m24 0h4m4 0h2m2 0h2m4 0h4m18 0h10m4 0h2m28 0h2m2 0h6m4 0h8M8 32h6m2 0h4m2 0h8m2 0h2m26 0h2m2 0h4m2 0h2m30 0h2m2 0h2m36 0h4m2 0h2m30 0h2m2 0h2m6 0h4m2 0h4m24 0h4m32 0h2m4 0h2m2 0h2m32 0h8m4 0h2m32 0h6m28 0h6m6 0h8m26 0h2m2 0h6m2 0h4m22 0h4m4 0h2m2 0h2m32 0h4m2 0h2m2 0h2m2 0h2m22 0h6m6 0h8m26 0h2m2 0h6m2 0h4m22 0h4m4 0h2m2 0h2m32 0h4m2 0h2m2 0h2m2 0h2m24 0h2m6 0h6m32 0h4m4 0h6m24 0h10M8 33h6m2 0h4m2 0h8m2 0h2m26 0h2m2 0h4m2 0h2m30 0h2m2 0h2m36 0h4m2 0h2m30 0h2m2 0h2m6 0h4m2 0h4m24 0h4m32 0h2m4 0h2m2 0h2m32 0h8m4 0h2m32 0h6m28 0h6m6 0h8m26 0h2m2 0h6m2 0h4m22 0h4m4 0h2m2 0h2m32 0h4m2 0h2m2 0h2m2 0h2m22 0h6m6 0h8m26 0h2m2 0h6m2 0h4m22 0h4m4 0h2m2 0h2m32 0h4m2 0h2m2 0h2m2 0h2m24 0h2m6 0h6m32 0h4m4 0h6m24 0h10M10 34h2m6 0h2m2 0h2m4 0h4m24 0h6m40 0h2m2 0h2m38 0h2m2 0h4m44 0h2m108 0h2m46 0h6m30 0h2m40 0h6m40 0h6m30 0h2m4 0h2m4 0h8m24 0h2m40 0h6m40 0h6m30 0h2m4 0h2m4 0h8m22 0h4m6 0h4m32 0h4m42 0h2m4 0h2M10 35h2m6 0h2m2 0h2m4 0h4m24 0h6m40 0h2m2 0h2m38 0h2m2 0h4m44 0h2m108 0h2m46 0h6m30 0h2m40 0h6m40 0h6m30 0h2m4 0h2m4 0h8m24 0h2m40 0h6m40 0h6m30 0h2m4 0h2m4 0h8m22 0h4m6 0h4m32 0h4m42 0h2m4 0h2M20 36h4m6 0h2m24 0h6m42 0h4m40 0h6m204 0h2m78 0h2m40 0h6m36 0h2m82 0h2m40 0h6m36 0h2m40 0h2m38 0h4m42 0h4M20 37h4m6 0h2m24 0h6m42 0h4m40 0h6m204 0h2m78 0h2m40 0h6m36 0h2m82 0h2m40 0h6m36 0h2m40 0h2m38 0h4m42 0h4m-4 1h2m-2 1h2"/><path stroke="#707070" d="M232 6h4m36 0h2m36 0h4m164 0h2m166 0h2M232 7h4m36 0h2m36 0h4m164 0h2m166 0h2M146 8h2m84 0h6m34 0h4m32 0h6m44 0h2m32 0h2m8 0h4m34 0h4m34 0h4m78 0h2m8 0h4m34 0h4m34 0h4M146 9h2m84 0h6m34 0h4m32 0h6m44 0h2m32 0h2m8 0h4m34 0h4m34 0h4m78 0h2m8 0h4m34 0h4m34 0h4M18 10h2m40 0h2m6 0h2m38 0h4m34 0h4m34 0h2m6 0h2m4 0h2m28 0h2m2 0h4m36 0h4m34 0h4m6 0h2m26 0h2m8 0h2m34 0h2m4 0h4m36 0h4m34 0h6m32 0h2m44 0h2m4 0h4m36 0h4m34 0h6m32 0h2m130 0h6M18 11h2m40 0h2m6 0h2m38 0h4m34 0h4m34 0h2m6 0h2m4 0h2m28 0h2m2 0h4m36 0h4m34 0h4m6 0h2m26 0h2m8 0h2m34 0h2m4 0h4m36 0h4m34 0h6m32 0h2m44 0h2m4 0h4m36 0h4m34 0h6m32 0h2m130 0h6M16 12h6m2 0h2m28 0h4m2 0h4m4 0h2m30 0h6m2 0h2m30 0h4m2 0h4m2 0h4m28 0h4m2 0h4m2 0h6m24 0h10m30 0h4m2 0h4m6 0h2m22 0h2m2 0h12m24 0h6m4 0h6m4 0h4m24 0h12m26 0h4m4 0h4m34 0h8m30 0h8m38 0h12m26 0h4m4 0h4m34 0h8m30 0h8m44 0h8m32 0h8m32 0h8M16 13h6m2 0h2m28 0h4m2 0h4m4 0h2m30 0h6m2 0h2m30 0h4m2 0h4m2 0h4m28 0h4m2 0h4m2 0h6m24 0h10m30 0h4m2 0h4m6 0h2m22 0h2m2 0h12m24 0h6m4 0h6m4 0h4m24 0h12m26 0h4m4 0h4m34 0h8m30 0h8m38 0h12m26 0h4m4 0h4m34 0h8m30 0h8m44 0h8m32 0h8m32 0h8M14 14h6m2 0h6m26 0h4m2 0h4m2 0h4m26 0h2m4 0h14m24 0h4m2 0h8m4 0h2m26 0h14m20 0h10m4 0h4m4 0h2m24 0h14m24 0h6m8 0h2m26 0h8m4 0h8m18 0h2m4 0h2m8 0h4m28 0h10m26 0h10m4 0h2m32 0h8m4 0h2m22 0h2m4 0h2m8 0h4m28 0h10m26 0h10m4 0h2m32 0h8m4 0h2m22 0h2m2 0h18m32 0h8m30 0h4m4 0h6M14 15h6m2 0h6m26 0h4m2 0h4m2 0h4m26 0h2m4 0h14m24 0h4m2 0h8m4 0h2m26 0h14m20 0h10m4 0h4m4 0h2m24 0h14m24 0h6m8 0h2m26 0h8m4 0h8m18 0h2m4 0h2m8 0h4m28 0h10m26 0h10m4 0h2m32 0h8m4 0h2m22 0h2m4 0h2m8 0h4m28 0h10m26 0h10m4 0h2m32 0h8m4 0h2m22 0h2m2 0h18m32 0h8m30 0h4m4 0h6M14 16h4m6 0h2m4 0h4m20 0h4m6 0h8m24 0h4m4 0h2m4 0h6m22 0h8m6 0h10m20 0h2m2 0h2m6 0h4m26 0h4m10 0h4m20 0h2m4 0h2m8 0h4m26 0h2m10 0h4m26 0h4m8 0h6m16 0h10m8 0h4m28 0h2m6 0h2m28 0h4m8 0h8m26 0h4m2 0h10m18 0h10m8 0h4m28 0h2m6 0h2m28 0h4m8 0h8m26 0h4m2 0h10m20 0h14m34 0h6m6 0h4m28 0h4m4 0h6M14 17h4m6 0h2m4 0h4m20 0h4m6 0h8m24 0h4m4 0h2m4 0h6m22 0h8m6 0h10m20 0h2m2 0h2m6 0h4m26 0h4m10 0h4m20 0h2m4 0h2m8 0h4m26 0h2m10 0h4m26 0h4m8 0h6m16 0h10m8 0h4m28 0h2m6 0h2m28 0h4m8 0h8m26 0h4m2 0h10m18 0h10m8 0h4m28 0h2m6 0h2m28 0h4m8 0h8m26 0h4m2 0h10m20 0h14m34 0h6m6 0h4m28 0h4m4 0h6M16 18h2m6 0h8m22 0h4m10 0h6m22 0h4m12 0h8m16 0h4m14 0h8m18 0h8m8 0h2m28 0h2m10 0h2m22 0h6m12 0h2m22 0h6m12 0h8m16 0h6m12 0h4m16 0h8m10 0h4m26 0h2m8 0h4m28 0h2m8 0h10m22 0h4m6 0h2m4 0h6m14 0h8m10 0h4m26 0h2m8 0h4m28 0h2m8 0h10m22 0h4m6 0h2m4 0h6m18 0h4m12 0h6m20 0h10m6 0h4m24 0h8m4 0h2M16 19h2m6 0h8m22 0h4m10 0h6m22 0h4m12 0h8m16 0h4m14 0h8m18 0h8m8 0h2m28 0h2m10 0h2m22 0h6m12 0h2m22 0h6m12 0h8m16 0h6m12 0h4m16 0h8m10 0h4m26 0h2m8 0h4m28 0h2m8 0h10m22 0h4m6 0h2m4 0h6m14 0h8m10 0h4m26 0h2m8 0h4m28 0h2m8 0h10m22 0h4m6 0h2m4 0h6m18 0h4m12 0h6m20 0h10m6 0h4m24 0h8m4 0h2M16 20h4m8 0h2m26 0h4m10 0h2m24 0h4m12 0h8m16 0h4m14 0h2m26 0h2m14 0h2m22 0h4m12 0h2m26 0h4m10 0h4m20 0h6m12 0h4m22 0h4m10 0h4m24 0h2m10 0h4m20 0h8m8 0h6m26 0h2m14 0h4m18 0h6m16 0h2m22 0h2m10 0h4m20 0h8m8 0h6m26 0h2m14 0h4m18 0h6m16 0h2m22 0h2m12 0h4m18 0h8m10 0h6m22 0h4m12 0h8M16 21h4m8 0h2m26 0h4m10 0h2m24 0h4m12 0h8m16 0h4m14 0h2m26 0h2m14 0h2m22 0h4m12 0h2m26 0h4m10 0h4m20 0h6m12 0h4m22 0h4m10 0h4m24 0h2m10 0h4m20 0h8m8 0h6m26 0h2m14 0h4m18 0h6m16 0h2m22 0h2m10 0h4m20 0h8m8 0h6m26 0h2m14 0h4m18 0h6m16 0h2m22 0h2m12 0h4m18 0h8m10 0h6m22 0h4m12 0h8M14 22h4m10 0h4m24 0h4m10 0h8m20 0h6m8 0h2m22 0h10m8 0h2m24 0h2m16 0h6m16 0h6m12 0h4m22 0h6m10 0h8m22 0h2m4 0h8m26 0h2m8 0h4m24 0h6m10 0h4m18 0h8m12 0h4m22 0h4m14 0h6m20 0h2m14 0h2m22 0h6m10 0h4m18 0h8m12 0h4m22 0h4m14 0h6m20 0h2m14 0h2m24 0h2m10 0h2m28 0h4m8 0h4m20 0h8m12 0h6M14 23h4m10 0h4m24 0h4m10 0h8m20 0h6m8 0h2m22 0h10m8 0h2m24 0h2m16 0h6m16 0h6m12 0h4m22 0h6m10 0h8m22 0h2m4 0h8m26 0h2m8 0h4m24 0h6m10 0h4m18 0h8m12 0h4m22 0h4m14 0h6m20 0h2m14 0h2m22 0h6m10 0h4m18 0h8m12 0h4m22 0h4m14 0h6m20 0h2m14 0h2m24 0h2m10 0h2m28 0h4m8 0h4m20 0h8m12 0h6M12 24h4m12 0h6m22 0h4m8 0h10m22 0h4m8 0h2m26 0h6m8 0h2m22 0h6m4 0h2m6 0h4m30 0h14m20 0h4m6 0h10m22 0h6m4 0h4m28 0h8m6 0h2m26 0h8m6 0h4m24 0h2m12 0h4m18 0h10m6 0h6m28 0h2m8 0h8m22 0h8m6 0h4m24 0h2m12 0h4m18 0h10m6 0h6m28 0h2m8 0h8m20 0h4m10 0h4m26 0h2m12 0h6m22 0h4m10 0h2M12 25h4m12 0h6m22 0h4m8 0h10m22 0h4m8 0h2m26 0h6m8 0h2m22 0h6m4 0h2m6 0h4m30 0h14m20 0h4m6 0h10m22 0h6m4 0h4m28 0h8m6 0h2m26 0h8m6 0h4m24 0h2m12 0h4m18 0h10m6 0h6m28 0h2m8 0h8m22 0h8m6 0h4m24 0h2m12 0h4m18 0h10m6 0h6m28 0h2m8 0h8m20 0h4m10 0h4m26 0h2m12 0h6m22 0h4m10 0h2M12 26h6m8 0h4m26 0h4m8 0h2m4 0h2m26 0h2m6 0h4m30 0h2m4 0h8m24 0h10m2 0h4m24 0h18m2 0h2m30 0h2m30 0h6m4 0h4m26 0h4m4 0h2m6 0h4m26 0h4m2 0h4m2 0h4m22 0h12m4 0h4m18 0h4m4 0h8m2 0h4m28 0h4m6 0h2m2 0h2m26 0h4m2 0h4m2 0h4m22 0h12m4 0h4m18 0h4m4 0h8m2 0h4m28 0h4m6 0h2m2 0h2m20 0h2m4 0h4m4 0h10m22 0h4m8 0h4m28 0h2m8 0h6M12 27h6m8 0h4m26 0h4m8 0h2m4 0h2m26 0h2m6 0h4m30 0h2m4 0h8m24 0h10m2 0h4m24 0h18m2 0h2m30 0h2m30 0h6m4 0h4m26 0h4m4 0h2m6 0h4m26 0h4m2 0h4m2 0h4m22 0h12m4 0h4m18 0h4m4 0h8m2 0h4m28 0h4m6 0h2m2 0h2m26 0h4m2 0h4m2 0h4m22 0h12m4 0h4m18 0h4m4 0h8m2 0h4m28 0h4m6 0h2m2 0h2m20 0h2m4 0h4m4 0h10m22 0h4m8 0h4m28 0h2m8 0h6M12 28h8m4 0h8m24 0h12m34 0h12m30 0h8m32 0h2m4 0h8m24 0h8m38 0h8m34 0h8m34 0h6m2 0h4m28 0h2m4 0h4m2 0h4m28 0h4m2 0h2m4 0h2m24 0h4m2 0h4m2 0h2m28 0h14m30 0h2m4 0h4m2 0h4m28 0h4m2 0h2m4 0h2m24 0h4m2 0h4m2 0h2m28 0h14m32 0h10m28 0h16m28 0h12m2 0h2M12 29h8m4 0h8m24 0h12m34 0h12m30 0h8m32 0h2m4 0h8m24 0h8m38 0h8m34 0h8m34 0h6m2 0h4m28 0h2m4 0h4m2 0h4m28 0h4m2 0h2m4 0h2m24 0h4m2 0h4m2 0h2m28 0h14m30 0h2m4 0h4m2 0h4m28 0h4m2 0h2m4 0h2m24 0h4m2 0h4m2 0h2m28 0h14m32 0h10m28 0h16m28 0h12m2 0h2M10 30h4m4 0h6m4 0h6m24 0h4m4 0h2m34 0h4m40 0h4m42 0h8m66 0h8m38 0h6m36 0h2m2 0h4m30 0h2m6 0h2m34 0h2m4 0h4m36 0h2m30 0h6m2 0h4m2 0h4m28 0h2m6 0h2m34 0h2m4 0h4m36 0h2m30 0h6m2 0h4m2 0h4m30 0h4m2 0h2m38 0h4m2 0h2m28 0h2m6 0h4M10 31h4m4 0h6m4 0h6m24 0h4m4 0h2m34 0h4m40 0h4m42 0h8m66 0h8m38 0h6m36 0h2m2 0h4m30 0h2m6 0h2m34 0h2m4 0h4m36 0h2m30 0h6m2 0h4m2 0h4m28 0h2m6 0h2m34 0h2m4 0h4m36 0h2m30 0h6m2 0h4m2 0h4m30 0h4m2 0h2m38 0h4m2 0h2m28 0h2m6 0h4M20 32h2m8 0h2m24 0h4m8 0h2m34 0h2m42 0h2m48 0h2m160 0h2m74 0h2m44 0h2m32 0h2m4 0h2m6 0h2m72 0h2m44 0h2m32 0h2m4 0h2m6 0h2m28 0h6m42 0h4m40 0h6M20 33h2m8 0h2m24 0h4m8 0h2m34 0h2m42 0h2m48 0h2m160 0h2m74 0h2m44 0h2m32 0h2m4 0h2m6 0h2m72 0h2m44 0h2m32 0h2m4 0h2m6 0h2m28 0h6m42 0h4m40 0h6M20 34h2m82 0h2m42 0h2m580 0h4m42 0h4m40 0h4M20 35h2m82 0h2m42 0h2m580 0h4m42 0h4m40 0h4"/><path stroke="#757575" d="M20 14h2m36 0h2m170 0h4m78 0h8m36 0h4m34 0h8m78 0h4m78 0h8m78 0h4m166 0h4M20 15h2m36 0h2m170 0h4m78 0h8m36 0h4m34 0h8m78 0h4m78 0h8m78 0h4m166 0h4M18 16h2m2 0h2m36 0h4m36 0h4m2 0h4m36 0h6m36 0h6m34 0h10m32 0h8m32 0h10m34 0h8m32 0h8m34 0h6m34 0h8m38 0h2m38 0h8m34 0h6m34 0h8m38 0h2m44 0h2m2 0h2m34 0h6m36 0h4M18 17h2m2 0h2m36 0h4m36 0h4m2 0h4m36 0h6m36 0h6m34 0h10m32 0h8m32 0h10m34 0h8m32 0h8m34 0h6m34 0h8m38 0h2m38 0h8m34 0h6m34 0h8m38 0h2m44 0h2m2 0h2m34 0h6m36 0h4M18 18h6m34 0h4m2 0h4m34 0h4m4 0h2m28 0h6m4 0h4m34 0h2m2 0h4m32 0h2m2 0h6m30 0h12m30 0h2m2 0h2m2 0h4m30 0h6m2 0h4m28 0h6m2 0h2m32 0h8m34 0h4m2 0h2m36 0h6m2 0h4m28 0h6m2 0h2m32 0h8m34 0h4m2 0h2m36 0h6m2 0h4m28 0h12m36 0h6m36 0h4M18 19h6m34 0h4m2 0h4m34 0h4m4 0h2m28 0h6m4 0h4m34 0h2m2 0h4m32 0h2m2 0h6m30 0h12m30 0h2m2 0h2m2 0h4m30 0h6m2 0h4m28 0h6m2 0h2m32 0h8m34 0h4m2 0h2m36 0h6m2 0h4m28 0h6m2 0h2m32 0h8m34 0h4m2 0h2m36 0h6m2 0h4m28 0h12m36 0h6m36 0h4M20 20h2m2 0h4m32 0h2m4 0h4m30 0h12m28 0h14m30 0h4m4 0h6m28 0h2m2 0h2m2 0h4m38 0h4m30 0h2m2 0h8m30 0h2m4 0h4m30 0h4m2 0h4m32 0h4m2 0h2m34 0h6m2 0h6m28 0h4m2 0h6m2 0h2m26 0h4m2 0h4m32 0h4m2 0h2m34 0h6m2 0h6m28 0h4m2 0h6m2 0h2m26 0h4m6 0h2m30 0h10m32 0h6m4 0h2M20 21h2m2 0h4m32 0h2m4 0h4m30 0h12m28 0h14m30 0h4m4 0h6m28 0h2m2 0h2m2 0h4m38 0h4m30 0h2m2 0h8m30 0h2m4 0h4m30 0h4m2 0h4m32 0h4m2 0h2m34 0h6m2 0h6m28 0h4m2 0h6m2 0h2m26 0h4m2 0h4m32 0h4m2 0h2m34 0h6m2 0h6m28 0h4m2 0h6m2 0h2m26 0h4m6 0h2m30 0h10m32 0h6m4 0h2M18 22h4m4 0h2m32 0h2m2 0h6m34 0h2m2 0h4m34 0h2m2 0h4m28 0h2m2 0h6m2 0h4m28 0h12m32 0h10m32 0h4m36 0h4m2 0h2m34 0h4m2 0h4m30 0h4m2 0h6m30 0h4m4 0h6m28 0h6m4 0h4m30 0h4m2 0h4m30 0h4m2 0h6m30 0h4m4 0h6m28 0h6m4 0h4m28 0h6m2 0h2m34 0h2m38 0h4m2 0h2m2 0h2M18 23h4m4 0h2m32 0h2m2 0h6m34 0h2m2 0h4m34 0h2m2 0h4m28 0h2m2 0h6m2 0h4m28 0h12m32 0h10m32 0h4m36 0h4m2 0h2m34 0h4m2 0h4m30 0h4m2 0h6m30 0h4m4 0h6m28 0h6m4 0h4m30 0h4m2 0h4m30 0h4m2 0h6m30 0h4m4 0h6m28 0h6m4 0h4m28 0h6m2 0h2m34 0h2m38 0h4m2 0h2m2 0h2M16 24h4m2 0h6m32 0h8m36 0h8m34 0h8m30 0h4m2 0h6m28 0h2m2 0h2m38 0h6m38 0h4m40 0h6m36 0h4m32 0h12m32 0h6m36 0h4m2 0h2m38 0h4m32 0h12m32 0h6m36 0h4m2 0h2m32 0h10m32 0h8m2 0h2m32 0h10M16 25h4m2 0h6m32 0h8m36 0h8m34 0h8m30 0h4m2 0h6m28 0h2m2 0h2m38 0h6m38 0h4m40 0h6m36 0h4m32 0h12m32 0h6m36 0h4m2 0h2m38 0h4m32 0h12m32 0h6m36 0h4m2 0h2m32 0h10m32 0h8m2 0h2m32 0h10M18 26h8m34 0h8m36 0h6m36 0h4m42 0h2m74 0h6m38 0h4m40 0h2m2 0h2m40 0h2m38 0h4m76 0h6m42 0h2m38 0h4m76 0h6m36 0h4m36 0h8m34 0h8M18 27h8m34 0h8m36 0h6m36 0h4m42 0h2m74 0h6m38 0h4m40 0h2m2 0h2m40 0h2m38 0h4m76 0h6m42 0h2m38 0h4m76 0h6m36 0h4m36 0h8m34 0h8M20 28h4m334 0h2M20 29h4m334 0h2"/><path stroke="#7a7a7a" d="M20 16h2m36 0h2m678 0h2M20 17h2m36 0h2m678 0h2M62 18h2m36 0h2m4 0h4m36 0h4m40 0h2m38 0h2m80 0h2m2 0h2m40 0h2m38 0h2m80 0h2m84 0h2m80 0h2M62 19h2m36 0h2m4 0h4m36 0h4m40 0h2m38 0h2m80 0h2m2 0h2m40 0h2m38 0h2m80 0h2m84 0h2m80 0h2M22 20h2m38 0h4m122 0h4m36 0h2m2 0h2m36 0h6m36 0h2m40 0h4m38 0h2m40 0h2m42 0h2m38 0h2m6 0h2m32 0h2m40 0h2m42 0h2m38 0h2m6 0h2m32 0h6m80 0h4M22 21h2m38 0h4m122 0h4m36 0h2m2 0h2m36 0h6m36 0h2m40 0h4m38 0h2m40 0h2m42 0h2m38 0h2m6 0h2m32 0h2m40 0h2m42 0h2m38 0h2m6 0h2m32 0h6m80 0h4M22 22h4m36 0h2m42 0h2m40 0h2m34 0h2m6 0h2m162 0h2m40 0h2m38 0h2m40 0h4m40 0h4m38 0h2m38 0h2m40 0h4m40 0h4m38 0h2m38 0h6m36 0h2m2 0h2M22 23h4m36 0h2m42 0h2m40 0h2m34 0h2m6 0h2m162 0h2m40 0h2m38 0h2m40 0h4m40 0h4m38 0h2m38 0h2m40 0h4m40 0h4m38 0h2m38 0h6m36 0h2m2 0h2M20 24h2m204 0h2m174 0h2m120 0h2m44 0h2m120 0h2m84 0h2M20 25h2m204 0h2m174 0h2m120 0h2m44 0h2m120 0h2m84 0h2m-422 1h2m-2 1h2"/></svg>
