<svg version="1" xmlns="http://www.w3.org/2000/svg" width="592" height="592" viewBox="0 0 444.000000 444.000000"><path d="M0 222v222h444V0H0v222zm96-75v27h72v6h12v6h12v6h12v6h12v6h12v6h102v6h54v6h-36v6h-42v6h-36v6h-42v6h-42v6h-36v6h-24v12H96v54H60v-6H42v-6H30v-3c0-2.7-.3-3-3-3h-3v-54h-6v-60h6v-54h3c2.7 0 3-.3 3-3v-3h12v-6h18v-6h36v27zm324 72c0 2.7.3 3 3 3h3v12h-6v12h-6v12h-3c-2.7 0-3 .3-3 3v3H228v6h-72v-6h36v-6h42v-6h42v-6h36v-6h42v-6h36v-6h24v-12h3c2.7 0 3 .3 3 3z"/><path d="M102 198v18h-3c-2.7 0-3-.3-3-3s-.3-3-3-3h-3v24h3c2.7 0 3-.3 3-3s.3-3 3-3 3-.3 3-3v-3h126v-3c0-2.7-.3-3-3-3s-3-.3-3-3v-3h-12v-6h-12v-6h-12v-6h-12v-6h-12v-6h-60v18z"/></svg>