<svg xmlns="http://www.w3.org/2000/svg" viewBox="0 -0.5 400 200" shape-rendering="crispEdges"><path stroke="#000" d="M0 0h166m2 0h200m2 0h30M0 1h166m2 0h200m2 0h30M0 2h164m6 0h230M0 3h164m6 0h230M0 4h166m2 0h232M0 5h166m2 0h232M0 6h400M0 7h400M0 8h228m2 0h170M0 9h228m2 0h170M0 10h272m2 0h126M0 11h272m2 0h126M0 12h270m6 0h124M0 13h270m6 0h124M0 14h268m10 0h122M0 15h268m10 0h122M0 16h44m2 0h220m14 0h76m2 0h42M0 17h44m2 0h220m14 0h76m2 0h42M0 18h42m6 0h220m10 0h122M0 19h42m6 0h220m10 0h122M0 20h40m10 0h220m6 0h124M0 21h40m10 0h220m6 0h124M0 22h42m6 0h224m2 0h126M0 23h42m6 0h224m2 0h126M0 24h44m2 0h344m2 0h8M0 25h44m2 0h344m2 0h8M0 26h108m2 0h278m6 0h6M0 27h108m2 0h278m6 0h6M0 28h106m6 0h278m2 0h8M0 29h106m6 0h278m2 0h8M0 30h10m2 0h92m10 0h286M0 31h10m2 0h92m10 0h286M0 32h106m6 0h288M0 33h106m6 0h288M0 34h108m2 0h290M0 35h108m2 0h290M0 36h400M0 37h400M0 38h400M0 39h400M0 40h400M0 41h400M0 42h172m2 0h226M0 43h172m2 0h226M0 44h170m6 0h224M0 45h170m6 0h224M0 46h168m10 0h222M0 47h168m10 0h222M0 48h166m14 0h26m2 0h130m2 0h60M0 49h166m14 0h26m2 0h130m2 0h60M0 50h168m10 0h158m6 0h58M0 51h168m10 0h158m6 0h58M0 52h170m6 0h162m2 0h60M0 53h170m6 0h162m2 0h60M0 54h172m2 0h88m2 0h136M0 55h172m2 0h88m2 0h136M0 56h84m2 0h174m6 0h134M0 57h84m2 0h174m6 0h134M0 58h262m2 0h136M0 59h262m2 0h136M0 60h400M0 61h400M0 62h38m2 0h360M0 63h38m2 0h360M0 64h36m6 0h358M0 65h36m6 0h358M0 66h34m10 0h356M0 67h34m10 0h356M0 68h36m6 0h330m2 0h26M0 69h36m6 0h330m2 0h26M0 70h38m2 0h330m6 0h24M0 71h38m2 0h330m6 0h24M0 72h372m2 0h26M0 73h372m2 0h26M0 74h400M0 75h400M0 76h294m2 0h24m2 0h78M0 77h294m2 0h24m2 0h78M0 78h124m2 0h44m2 0h146m6 0h76M0 79h124m2 0h44m2 0h146m6 0h76M0 80h122m6 0h70m2 0h116m10 0h74M0 81h122m6 0h70m2 0h116m10 0h74M0 82h10m2 0h112m2 0h70m6 0h24m2 0h90m6 0h76M0 83h10m2 0h112m2 0h70m6 0h24m2 0h90m6 0h76M0 84h198m2 0h120m2 0h78M0 85h198m2 0h120m2 0h78M0 86h400M0 87h400M0 88h400M0 89h400M0 90h400M0 91h400M0 92h400M0 93h400M0 94h386m2 0h12M0 95h386m2 0h12M0 96h60m2 0h322m6 0h10M0 97h60m2 0h322m6 0h10M0 98h28m2 0h234m2 0h116m10 0h8M0 99h28m2 0h234m2 0h116m10 0h8M0 100h26m6 0h230m6 0h112m14 0h6M0 101h26m6 0h230m6 0h112m14 0h6M0 102h28m2 0h134m2 0h98m2 0h116m10 0h8M0 103h28m2 0h134m2 0h98m2 0h116m10 0h8M0 104h102m2 0h280m6 0h10M0 105h102m2 0h280m6 0h10M0 106h100m6 0h280m2 0h12M0 107h100m6 0h280m2 0h12M0 108h98m10 0h192m2 0h98M0 109h98m10 0h192m2 0h98M0 110h100m6 0h294M0 111h100m6 0h294M0 112h102m2 0h296M0 113h102m2 0h296M0 114h400M0 115h400M0 116h400M0 117h400M0 118h222m2 0h176M0 119h222m2 0h176M0 120h220m6 0h174M0 121h220m6 0h174M0 122h218m10 0h112m2 0h58M0 123h218m10 0h112m2 0h58M0 124h216m14 0h162m2 0h6M0 125h216m14 0h162m2 0h6M0 126h168m2 0h48m10 0h172M0 127h168m2 0h48m10 0h172M0 128h220m6 0h174M0 129h220m6 0h174M0 130h62m2 0h158m2 0h176M0 131h62m2 0h158m2 0h176M0 132h400M0 133h400M0 134h400M0 135h400M0 136h106m2 0h292M0 137h106m2 0h292M0 138h400M0 139h400M0 140h400M0 141h400M0 142h252m2 0h146M0 143h252m2 0h146M0 144h250m6 0h144M0 145h250m6 0h144M0 146h248m10 0h142M0 147h248m10 0h142M0 148h160m2 0h88m6 0h144M0 149h160m2 0h88m6 0h144M0 150h158m6 0h88m2 0h14m2 0h130M0 151h158m6 0h88m2 0h14m2 0h130M0 152h156m10 0h234M0 153h156m10 0h234M0 154h4m2 0h152m6 0h236M0 155h4m2 0h152m6 0h236M0 156h46m2 0h112m2 0h238M0 157h46m2 0h112m2 0h238M0 158h44m6 0h350M0 159h44m6 0h350M0 160h42m10 0h328m2 0h18M0 161h42m10 0h328m2 0h18M0 162h44m6 0h276m2 0h72M0 163h44m6 0h276m2 0h72M0 164h46m2 0h276m6 0h70M0 165h46m2 0h276m6 0h70M0 166h172m2 0h148m10 0h68M0 167h172m2 0h148m10 0h68M0 168h324m6 0h70M0 169h324m6 0h70M0 170h326m2 0h72M0 171h326m2 0h72M0 172h400M0 173h400M0 174h400M0 175h400M0 176h222m2 0h176M0 177h222m2 0h176M0 178h40m2 0h178m6 0h174M0 179h40m2 0h178m6 0h174M0 180h38m6 0h64m2 0h112m2 0h176M0 181h38m6 0h64m2 0h112m2 0h176M0 182h36m10 0h60m6 0h288M0 183h36m10 0h60m6 0h288M0 184h34m14 0h56m10 0h286M0 185h34m14 0h56m10 0h286M0 186h36m10 0h60m6 0h288M0 187h36m10 0h60m6 0h288M0 188h38m6 0h64m2 0h196m2 0h92M0 189h38m6 0h64m2 0h196m2 0h92M0 190h2m2 0h36m2 0h114m2 0h146m6 0h90M0 191h2m2 0h36m2 0h114m2 0h146m6 0h90M0 192h306m2 0h60m2 0h30M0 193h306m2 0h60m2 0h30M0 194h366m6 0h28M0 195h366m6 0h28M0 196h364m10 0h26M0 197h364m10 0h26M0 198h366m6 0h28M0 199h366m6 0h28"/><path stroke="#181d25" d="M166 0h2m200 0h2M166 1h2m200 0h2M164 2h2m2 0h2m-6 1h2m2 0h2m-4 1h2m-2 1h2m94 49h2m-2 1h2m-4 1h2m2 0h2m-6 1h2m2 0h2m-4 1h2m-2 1h2M38 62h2m-2 1h2m-4 1h2m2 0h2m-6 1h2m2 0h2m-8 1h2m6 0h2m-10 1h2m6 0h2m-8 1h2m2 0h2m-6 1h2m2 0h2m-4 1h2m-2 1h2m130 7h2m-2 1h2M10 82h2m-2 1h2m374 11h2m-2 1h2M60 96h2m322 0h2m2 0h2M60 97h2m322 0h2m2 0h2m-8 1h2m6 0h2m-10 1h2m6 0h2m-12 1h2m10 0h2m-14 1h2m10 0h2m-12 1h2m6 0h2m-10 1h2m6 0h2m-8 1h2m2 0h2m-6 1h2m2 0h2m-4 1h2m-2 1h2m-20 85h2m-2 1h2m-4 1h2m2 0h2m-6 1h2m2 0h2m-8 1h2m6 0h2m-10 1h2m6 0h2m-8 1h2m2 0h2m-6 1h2m2 0h2"/><path stroke="#29313f" d="M166 2h2m-2 1h2m94 53h2m-2 1h2M38 64h2m-2 1h2m-4 1h2m2 0h2m-6 1h2m2 0h2m-4 1h2m-2 1h2m346 27h2m-2 1h2m-4 1h2m2 0h2m-6 1h2m2 0h2m-8 1h2m6 0h2m-10 1h2m6 0h2m-8 1h2m2 0h2m-6 1h2m2 0h2m-4 1h2m-2 1h2m-20 89h2m-2 1h2m-4 1h2m2 0h2m-6 1h2m2 0h2m-4 1h2m-2 1h2"/><path stroke="#262626" d="M228 8h2m-2 1h2m42 1h2m-2 1h2m-4 1h2m2 0h2m-6 1h2m2 0h2m-8 1h2m6 0h2m-10 1h2m6 0h2M44 16h2m220 0h2m10 0h2m76 0h2M44 17h2m220 0h2m10 0h2m76 0h2M42 18h2m2 0h2m220 0h2m6 0h2M42 19h2m2 0h2m220 0h2m6 0h2M40 20h2m6 0h2m220 0h2m2 0h2M40 21h2m6 0h2m220 0h2m2 0h2M42 22h2m2 0h2m224 0h2M42 23h2m2 0h2m224 0h2M44 24h2m-2 1h2m292 23h2m-2 1h2m-4 1h2m2 0h2m-6 1h2m2 0h2m-4 1h2m-2 1h2M124 78h2m-2 1h2m-4 1h2m2 0h2m-6 1h2m2 0h2m-4 1h2m-2 1h2M28 98h2m-2 1h2m-4 1h2m2 0h2m-6 1h2m2 0h2m-4 1h2m-2 1h2m270 5h2m-2 1h2m-196 27h2m-2 1h2M4 154h2m-2 1h2m320 7h2m-2 1h2m-4 1h2m2 0h2m-6 1h2m2 0h2m-8 1h2m6 0h2m-10 1h2m6 0h2m-8 1h2m2 0h2m-6 1h2m2 0h2m-4 1h2m-2 1h2"/><path stroke="#404040" d="M272 12h2m-2 1h2m-4 1h2m2 0h2m-6 1h2m2 0h2m-8 1h2m6 0h2m-10 1h2m6 0h2M44 18h2m224 0h2m2 0h2M44 19h2m224 0h2m2 0h2M42 20h2m2 0h2m224 0h2M42 21h2m2 0h2m224 0h2M44 22h2m-2 1h2m292 27h2m-2 1h2M124 80h2m-2 1h2m-98 19h2m-2 1h2m296 63h2m-2 1h2m-4 1h2m2 0h2m-6 1h2m2 0h2m-4 1h2m-2 1h2"/><path stroke="#a6a6a6" d="M272 14h2m-2 1h2m-4 1h2m2 0h2m-6 1h2m2 0h2m-4 1h2m-2 1h2M44 20h2m-2 1h2m280 145h2m-2 1h2"/><path stroke="#fff" d="M272 16h2m-2 1h2"/><path stroke="#1f2226" d="M390 24h2m-2 1h2m-4 1h2m2 0h2m-6 1h2m2 0h2m-4 1h2m-2 1h2M172 42h2m-2 1h2m-4 1h2m2 0h2m-6 1h2m2 0h2m-8 1h2m6 0h2m-10 1h2m6 0h2m-12 1h2m10 0h2m26 0h2m-42 1h2m10 0h2m26 0h2m-40 1h2m6 0h2m-10 1h2m6 0h2m-8 1h2m2 0h2m-6 1h2m2 0h2m-4 1h2m-2 1h2m198 13h2m-2 1h2m-4 1h2m2 0h2m-6 1h2m2 0h2m-4 1h2m-2 1h2m-80 3h2m-2 1h2m-132 25h2m-2 1h2m102 47h2m-2 1h2m110 9h2m-2 1h2m-210 5h2m-2 1h2m-66 13h2m-2 1h2m-4 1h2m2 0h2m-6 1h2m2 0h2m-8 1h2m6 0h2m-10 1h2m6 0h2m-8 1h2m2 0h2m-6 1h2m2 0h2m-4 1h2m-2 1h2m46 1h2m-2 1h2"/><path stroke="#262620" d="M108 26h2m-2 1h2m-4 1h2m2 0h2m-6 1h2m2 0h2m-8 1h2m6 0h2m-10 1h2m6 0h2m-8 1h2m2 0h2m-6 1h2m2 0h2m-4 1h2m-2 1h2m116 47h2m-2 1h2m36 15h2m-2 1h2m-4 1h2m2 0h2m-6 1h2m2 0h2m-4 1h2m-2 1h2m-164 1h2m-2 1h2m-4 1h2m2 0h2m-6 1h2m2 0h2m-8 1h2m6 0h2m-10 1h2m6 0h2m-8 1h2m2 0h2m-6 1h2m2 0h2m-4 1h2m-2 1h2m118 5h2m-2 1h2m-4 1h2m2 0h2m-6 1h2m2 0h2m-8 1h2m6 0h2m112 0h2m-124 1h2m6 0h2m112 0h2m-126 1h2m10 0h2m162 0h2m-178 1h2m10 0h2m162 0h2m-226 1h2m48 0h2m6 0h2m-60 1h2m48 0h2m6 0h2m-8 1h2m2 0h2m-6 1h2m2 0h2m-4 1h2m-2 1h2M46 156h2m-2 1h2m-4 1h2m2 0h2m-6 1h2m2 0h2m-8 1h2m6 0h2m-10 1h2m6 0h2m-8 1h2m2 0h2m-6 1h2m2 0h2m-4 1h2m-2 1h2m174 11h2m-2 1h2m-4 1h2m2 0h2m-6 1h2m2 0h2m-4 1h2m-2 1h2M2 190h2m-2 1h2"/><path stroke="#34383f" d="M390 26h2m-2 1h2M172 44h2m-2 1h2m-4 1h2m2 0h2m-6 1h2m2 0h2m-8 1h2m6 0h2m-10 1h2m6 0h2m-8 1h2m2 0h2m-6 1h2m2 0h2m-4 1h2m-2 1h2m198 17h2m-2 1h2M108 182h2m-2 1h2m-4 1h2m2 0h2m-6 1h2m2 0h2m-4 1h2m-2 1h2"/><path stroke="#404034" d="M108 28h2m-2 1h2m-4 1h2m2 0h2m-6 1h2m2 0h2m-4 1h2m-2 1h2m154 67h2m-2 1h2m-164 5h2m-2 1h2m-4 1h2m2 0h2m-6 1h2m2 0h2m-4 1h2m-2 1h2m118 9h2m-2 1h2m-4 1h2m2 0h2m-6 1h2m2 0h2m-8 1h2m6 0h2m-10 1h2m6 0h2m-8 1h2m2 0h2m-6 1h2m2 0h2m-4 1h2m-2 1h2M46 158h2m-2 1h2m-4 1h2m2 0h2m-6 1h2m2 0h2m-4 1h2m-2 1h2m174 15h2m-2 1h2"/><path stroke="#251f1f" d="M10 30h2m-2 1h2m72 25h2m-2 1h2m234 19h2m-2 1h2m-4 1h2m2 0h2m-6 1h2m2 0h2m-126 1h2m116 0h2m6 0h2m-128 1h2m116 0h2m6 0h2m-130 1h2m2 0h2m116 0h2m2 0h2m-128 1h2m2 0h2m116 0h2m2 0h2m-126 1h2m120 0h2m-124 1h2m120 0h2M62 130h2m-2 1h2m188 11h2m-2 1h2m-4 1h2m2 0h2m-6 1h2m2 0h2m-8 1h2m6 0h2m-10 1h2m6 0h2m-98 1h2m88 0h2m2 0h2m-96 1h2m88 0h2m2 0h2m-98 1h2m2 0h2m88 0h2m-96 1h2m2 0h2m88 0h2m-98 1h2m6 0h2m-10 1h2m6 0h2m-8 1h2m2 0h2m-6 1h2m2 0h2m-4 1h2m-2 1h2M40 178h2m-2 1h2m-4 1h2m2 0h2m-6 1h2m2 0h2m-8 1h2m6 0h2m-10 1h2m6 0h2m-12 1h2m10 0h2m-14 1h2m10 0h2m-12 1h2m6 0h2m-10 1h2m6 0h2m-8 1h2m2 0h2m262 0h2m-270 1h2m2 0h2m262 0h2m-268 1h2m262 0h2m2 0h2m-270 1h2m262 0h2m2 0h2m-4 1h2m-2 1h2"/><path stroke="#a5a588" d="M108 30h2m-2 1h2m-8 77h2m-2 1h2m118 13h2m-2 1h2m-4 1h2m2 0h2m-6 1h2m2 0h2m-4 1h2m-2 1h2M46 160h2m-2 1h2"/><path stroke="#8792a4" d="M172 46h2m-2 1h2m-4 1h2m2 0h2m-6 1h2m2 0h2m-4 1h2m-2 1h2m-66 133h2m-2 1h2"/><path stroke="#cfe0fc" d="M172 48h2m-2 1h2"/><path stroke="#697ea3" d="M38 66h2m-2 1h2m346 31h2m-2 1h2m-4 1h2m2 0h2m-6 1h2m2 0h2m-4 1h2m-2 1h2m-20 93h2m-2 1h2"/><path stroke="#3e3333" d="M320 78h2m-2 1h2m-4 1h2m2 0h2m-6 1h2m2 0h2m-126 1h2m120 0h2m-124 1h2m120 0h2m-70 61h2m-2 1h2m-4 1h2m2 0h2m-6 1h2m2 0h2m-4 1h2m-2 1h2m-94 1h2m-2 1h2m-4 1h2m2 0h2m-6 1h2m2 0h2m-4 1h2m-2 1h2M40 180h2m-2 1h2m-4 1h2m2 0h2m-6 1h2m2 0h2m-8 1h2m6 0h2m-10 1h2m6 0h2m-8 1h2m2 0h2m-6 1h2m2 0h2m-4 1h2m-2 1h2m264 1h2m-2 1h2"/><path stroke="#a18686" d="M320 80h2m-2 1h2m-70 65h2m-2 1h2m-94 5h2m-2 1h2M40 182h2m-2 1h2m-4 1h2m2 0h2m-6 1h2m2 0h2m-4 1h2m-2 1h2"/><path stroke="#a0c0fa" d="M386 100h2m-2 1h2"/><path stroke="#fefed1" d="M222 124h2m-2 1h2"/><path stroke="#f7cecd" d="M40 184h2m-2 1h2"/></svg>