<svg xmlns="http://www.w3.org/2000/svg" viewBox="0 -0.5 200 100" shape-rendering="crispEdges"><path stroke="#000" d="M0 0h83m1 0h100m1 0h15M0 1h82m3 0h115M0 2h83m1 0h116M0 3h200M0 4h114m1 0h85M0 5h136m1 0h63M0 6h135m3 0h62M0 7h134m5 0h61M0 8h22m1 0h110m7 0h38m1 0h21M0 9h21m3 0h110m5 0h61M0 10h20m5 0h110m3 0h62M0 11h21m3 0h112m1 0h63M0 12h22m1 0h172m1 0h4M0 13h54m1 0h139m3 0h3M0 14h53m3 0h139m1 0h4M0 15h5m1 0h46m5 0h143M0 16h53m3 0h144M0 17h54m1 0h145M0 18h200M0 19h200M0 20h200M0 21h86m1 0h113M0 22h85m3 0h112M0 23h84m5 0h111M0 24h83m7 0h13m1 0h65m1 0h30M0 25h84m5 0h79m3 0h29M0 26h85m3 0h81m1 0h30M0 27h86m1 0h44m1 0h68M0 28h42m1 0h87m3 0h67M0 29h131m1 0h68M0 30h200M0 31h19m1 0h180M0 32h18m3 0h179M0 33h17m5 0h178M0 34h18m3 0h165m1 0h13M0 35h19m1 0h165m3 0h12M0 36h186m1 0h13M0 37h200M0 38h147m1 0h12m1 0h39M0 39h62m1 0h22m1 0h73m3 0h38M0 40h61m3 0h35m1 0h58m5 0h37M0 41h5m1 0h56m1 0h35m3 0h12m1 0h45m3 0h38M0 42h99m1 0h60m1 0h39M0 43h200M0 44h200M0 45h200M0 46h200M0 47h193m1 0h6M0 48h30m1 0h161m3 0h5M0 49h14m1 0h117m1 0h58m5 0h4M0 50h13m3 0h115m3 0h56m7 0h3M0 51h14m1 0h67m1 0h49m1 0h58m5 0h4M0 52h51m1 0h140m3 0h5M0 53h50m3 0h140m1 0h6M0 54h49m5 0h96m1 0h49M0 55h50m3 0h147M0 56h51m1 0h148M0 57h200M0 58h200M0 59h111m1 0h88M0 60h110m3 0h87M0 61h109m5 0h56m1 0h29M0 62h108m7 0h81m1 0h3M0 63h84m1 0h24m5 0h86M0 64h110m3 0h87M0 65h31m1 0h79m1 0h88M0 66h200M0 67h200M0 68h53m1 0h146M0 69h200M0 70h200M0 71h126m1 0h73M0 72h125m3 0h72M0 73h124m5 0h71M0 74h80m1 0h44m3 0h72M0 75h79m3 0h44m1 0h7m1 0h65M0 76h78m5 0h117M0 77h2m1 0h76m3 0h118M0 78h23m1 0h56m1 0h119M0 79h22m3 0h175M0 80h21m5 0h164m1 0h9M0 81h22m3 0h138m1 0h36M0 82h23m1 0h138m3 0h35M0 83h86m1 0h74m5 0h34M0 84h162m3 0h35M0 85h163m1 0h36M0 86h200M0 87h200M0 88h111m1 0h88M0 89h20m1 0h89m3 0h87M0 90h19m3 0h32m1 0h56m1 0h88M0 91h18m5 0h30m3 0h144M0 92h17m7 0h28m5 0h143M0 93h18m5 0h30m3 0h144M0 94h19m3 0h32m1 0h98m1 0h46M0 95h1m1 0h18m1 0h57m1 0h73m3 0h45M0 96h153m1 0h30m1 0h15M0 97h183m3 0h14M0 98h182m5 0h13M0 99h183m3 0h14"/><path stroke="#181d25" d="M83 0h1m100 0h1M82 1h1m1 0h1m-2 1h1m47 25h1m-2 1h1m1 0h1m-2 1h1M19 31h1m-2 1h1m1 0h1m-4 1h1m3 0h1m-4 1h1m1 0h1m-2 1h1m65 4h1M5 41h1m187 6h1M30 48h1m161 0h1m1 0h1m-4 1h1m3 0h1m-6 1h1m5 0h1m-6 1h1m3 0h1m-4 1h1m1 0h1m-2 1h1m-10 43h1m-2 1h1m1 0h1m-4 1h1m3 0h1m-4 1h1m1 0h1"/><path stroke="#29313f" d="M83 1h1m47 27h1M19 32h1m-2 1h1m1 0h1m-2 1h1m173 14h1m-2 1h1m1 0h1m-4 1h1m3 0h1m-4 1h1m1 0h1m-2 1h1m-10 45h1m-2 1h1m1 0h1m-2 1h1"/><path stroke="#262626" d="M114 4h1m21 1h1m-2 1h1m1 0h1m-4 1h1m3 0h1M22 8h1m110 0h1m5 0h1m38 0h1M21 9h1m1 0h1m110 0h1m3 0h1M20 10h1m3 0h1m110 0h1m1 0h1M21 11h1m1 0h1m112 0h1M22 12h1m146 12h1m-2 1h1m1 0h1m-2 1h1M62 39h1m-2 1h1m1 0h1m-2 1h1m-49 8h1m-2 1h1m1 0h1m-2 1h1m135 3h1M53 68h1M2 77h1m160 4h1m-2 1h1m1 0h1m-4 1h1m3 0h1m-4 1h1m1 0h1m-2 1h1"/><path stroke="#404040" d="M136 6h1m-2 1h1m1 0h1m-4 1h1m3 0h1M22 9h1m112 0h1m1 0h1M21 10h1m1 0h1m112 0h1M22 11h1m146 14h1M62 40h1M14 50h1m148 32h1m-2 1h1m1 0h1m-2 1h1"/><path stroke="#a6a6a6" d="M136 7h1m-2 1h1m1 0h1m-2 1h1M22 10h1m140 73h1"/><path stroke="#fff" d="M136 8h1"/><path stroke="#1f2226" d="M195 12h1m-2 1h1m1 0h1m-2 1h1M86 21h1m-2 1h1m1 0h1m-4 1h1m3 0h1m-6 1h1m5 0h1m13 0h1m-20 1h1m3 0h1m-4 1h1m1 0h1m-2 1h1m99 7h1m-2 1h1m1 0h1m-2 1h1m-40 2h1M82 51h1m51 24h1m55 5h1M86 83h1m-33 7h1m-2 1h1m1 0h1m-4 1h1m3 0h1m-4 1h1m1 0h1m-2 1h1m23 1h1"/><path stroke="#262620" d="M54 13h1m-2 1h1m1 0h1m-4 1h1m3 0h1m-4 1h1m1 0h1m-2 1h1m58 24h1m18 8h1m-2 1h1m1 0h1m-2 1h1m-82 1h1m-2 1h1m1 0h1m-4 1h1m3 0h1m-4 1h1m1 0h1m-2 1h1m59 3h1m-2 1h1m1 0h1m-4 1h1m3 0h1m56 0h1m-63 1h1m5 0h1m81 0h1M84 63h1m24 0h1m3 0h1m-4 1h1m1 0h1m-2 1h1M23 78h1m-2 1h1m1 0h1m-4 1h1m3 0h1m-4 1h1m1 0h1m-2 1h1m87 6h1m-2 1h1m1 0h1m-2 1h1M1 95h1"/><path stroke="#34383f" d="M195 13h1M86 22h1m-2 1h1m1 0h1m-4 1h1m3 0h1m-4 1h1m1 0h1m-2 1h1m99 9h1M54 91h1m-2 1h1m1 0h1m-2 1h1"/><path stroke="#404034" d="M54 14h1m-2 1h1m1 0h1m-2 1h1m77 34h1m-82 3h1m-2 1h1m1 0h1m-2 1h1m59 5h1m-2 1h1m1 0h1m-4 1h1m3 0h1m-4 1h1m1 0h1m-2 1h1M23 79h1m-2 1h1m1 0h1m-2 1h1m87 8h1"/><path stroke="#251f1f" d="M5 15h1m36 13h1m117 10h1m-2 1h1m1 0h1m-63 1h1m58 0h1m3 0h1m-65 1h1m1 0h1m58 0h1m1 0h1m-63 1h1m60 0h1M31 65h1m94 6h1m-2 1h1m1 0h1m-4 1h1m3 0h1m-49 1h1m44 0h1m1 0h1m-49 1h1m1 0h1m44 0h1m-49 1h1m3 0h1m-4 1h1m1 0h1m-2 1h1M20 89h1m-2 1h1m1 0h1m-4 1h1m3 0h1m-6 1h1m5 0h1m-6 1h1m3 0h1m-4 1h1m1 0h1m131 0h1M20 95h1m131 0h1m1 0h1m-2 1h1"/><path stroke="#a5a588" d="M54 15h1m-4 39h1m59 7h1m-2 1h1m1 0h1m-2 1h1M23 80h1"/><path stroke="#8792a4" d="M86 23h1m-2 1h1m1 0h1m-2 1h1M54 92h1"/><path stroke="#cfe0fc" d="M86 24h1"/><path stroke="#697ea3" d="M19 33h1m173 16h1m-2 1h1m1 0h1m-2 1h1m-10 47h1"/><path stroke="#3e3333" d="M160 39h1m-2 1h1m1 0h1m-63 1h1m60 0h1m-35 31h1m-2 1h1m1 0h1m-2 1h1m-47 1h1m-2 1h1m1 0h1m-2 1h1M20 90h1m-2 1h1m1 0h1m-4 1h1m3 0h1m-4 1h1m1 0h1m-2 1h1m132 1h1"/><path stroke="#a18686" d="M160 40h1m-35 33h1m-47 3h1M20 91h1m-2 1h1m1 0h1m-2 1h1"/><path stroke="#a0c0fa" d="M193 50h1"/><path stroke="#fefed1" d="M111 62h1"/><path stroke="#f7cecd" d="M20 92h1"/></svg>