<svg xmlns="http://www.w3.org/2000/svg" viewBox="0 -0.5 500 500" shape-rendering="crispEdges" width="500" height="500"><rect width="100%" height="100%"/><path stroke="gray" d="M11 21h5m-8 1h3m-5 1h2m-3 5h1m-1 1h1M5 46h1m-1 1h1m0 5h2m0 1h3m0 1h5" transform="matrix(6.61765 0 0 6.1342 -1.4705884 19.467766)"/><path stroke="#999" d="M16 21h1m-6 5h5m-8 1h8M6 28h10M6 29h10m-8 1h2m-6 3h1m-1 9h1m3 3h2m-4 1h10M6 47h10m-8 1h8m-5 1h5m0 5h1" transform="matrix(6.61765 0 0 6.1342 -1.4705884 19.467766)"/><path stroke="#848484" d="M11 22h5m-8 1h3m-5 1h2M6 51h2m0 1h3m0 1h5" transform="matrix(6.61765 0 0 6.1342 -1.4705884 19.467766)"/><path stroke="#9c9c9c" d="M16 22h1m-1 13h1m-1 5h1m-1 13h1" transform="matrix(6.61765 0 0 6.1342 -1.4705884 19.467766)"/><path stroke="#8a8a8a" d="M11 23h5m-8 1h3m-5 1h2M6 50h2m0 1h3m0 1h5" transform="matrix(6.61765 0 0 6.1342 -1.4705884 19.467766)"/><path stroke="#a0a0a0" d="M16 23h1m-1 11h1m-1 7h1m-1 11h1" transform="matrix(6.61765 0 0 6.1342 -1.4705884 19.467766)"/><path stroke="#666" d="M5 24h1M5 51h1" transform="matrix(6.61765 0 0 6.1342 -1.4705884 19.467766)"/><path stroke="#8f8f8f" d="M11 24h5m-8 1h3m-5 1h2m-2 5h1M6 44h1m-1 5h2m0 1h3m0 1h5" transform="matrix(6.61765 0 0 6.1342 -1.4705884 19.467766)"/><path stroke="#a4a4a4" d="M16 24h1m-1 9h1m-1 9h1m-1 9h1" transform="matrix(6.61765 0 0 6.1342 -1.4705884 19.467766)"/><path stroke="#6c6c6c" d="M5 25h1M5 50h1" transform="matrix(6.61765 0 0 6.1342 -1.4705884 19.467766)"/><path stroke="#939393" d="M11 25h5m-8 1h3m-5 1h2m-2 3h2M6 45h2m-2 3h2m0 1h3m0 1h5" transform="matrix(6.61765 0 0 6.1342 -1.4705884 19.467766)"/><path stroke="#a7a7a7" d="M16 25h1m-1 7h1m-1 11h1m-1 7h1" transform="matrix(6.61765 0 0 6.1342 -1.4705884 19.467766)"/><path stroke="#737373" d="M5 26h1m-1 5h1M5 44h1m-1 5h1" transform="matrix(6.61765 0 0 6.1342 -1.4705884 19.467766)"/><path stroke="#ababab" d="M16 26h1m-1 5h1m-1 13h1m-1 5h1" transform="matrix(6.61765 0 0 6.1342 -1.4705884 19.467766)"/><path stroke="#797979" d="M5 27h1m-1 3h1M5 45h1m-1 3h1" transform="matrix(6.61765 0 0 6.1342 -1.4705884 19.467766)"/><path stroke="#afafaf" d="M16 27h1m-1 3h1m-1 15h1m-1 3h1" transform="matrix(6.61765 0 0 6.1342 -1.4705884 19.467766)"/><path stroke="#ac2d26" d="M17 27h1m-1 1h2m-2 1h2m-3 7h1m-1 1h2m-2 1h1m42 0h11m-18 1h14m-20 1h14m-21 1h14m-21 1h15m-21 1h14m-23 3h2m-2 1h1" transform="matrix(6.61765 0 0 6.1342 -1.4705884 19.467766)"/><path stroke="#b3b3b3" d="M16 28h1m-1 1h1m-7 1h5m-8 1h3m-5 1h2m-3 5h1m-1 1h1m0 5h2m0 1h3m29 0h29m-58 1h5m2 0h5m5 0h12m-23 1h1m-1 1h1" transform="matrix(6.61765 0 0 6.1342 -1.4705884 19.467766)"/><path stroke="#ccc" d="M15 30h1m1 1h1m10 0h1m-12 1h1m12 0h1m-14 1h1m14 0h1m-16 1h1m16 0h1m-25 1h5m2 0h1m18 0h1M9 36h6m2 0h1m20 0h1M5 37h10m24 0h17m14 0h1M5 38h10m3 0h41m11 0h1M7 39h8m2 0h35m14 0h5m-61 1h5m2 0h29m14 0h10m-53 1h22m14 0h17m-53 1h15m15 0h22m-52 1h9m42 1h1m-54 1h1" transform="matrix(6.61765 0 0 6.1342 -1.4705884 19.467766)"/><path stroke="#bfbfbf" d="M17 30h12m0 1h2m0 1h2m0 1h2m0 1h2m0 1h2m0 1h17m0 1h9m-25 6h29m-52 1h5m11 0h6" transform="matrix(6.61765 0 0 6.1342 -1.4705884 19.467766)"/><path stroke="#b8b8b8" d="M10 31h5m-6 1h1m-5 1h2m-2 9h2m0 1h3m0 1h5" transform="matrix(6.61765 0 0 6.1342 -1.4705884 19.467766)"/><path stroke="#cfcfcf" d="M15 31h1m-1 13h1" transform="matrix(6.61765 0 0 6.1342 -1.4705884 19.467766)"/><path stroke="#262626" d="M18 31h10" transform="matrix(6.61765 0 0 6.1342 -1.4705884 19.467766)"/><path stroke="#b6b6b6" d="M7 32h1" transform="matrix(6.61765 0 0 6.1342 -1.4705884 19.467766)"/><path stroke="#b7b7b7" d="M8 32h1" transform="matrix(6.61765 0 0 6.1342 -1.4705884 19.467766)"/><path stroke="#bdbdbd" d="M10 32h5m-6 1h1m-5 1h2m-2 7h2m0 1h3m0 1h5" transform="matrix(6.61765 0 0 6.1342 -1.4705884 19.467766)"/><path stroke="#d3d3d3" d="M15 32h1m-1 11h1" transform="matrix(6.61765 0 0 6.1342 -1.4705884 19.467766)"/><path stroke="#282828" d="M18 32h12" transform="matrix(6.61765 0 0 6.1342 -1.4705884 19.467766)"/><path stroke="#bbb" d="M7 33h1" transform="matrix(6.61765 0 0 6.1342 -1.4705884 19.467766)"/><path stroke="#bcbcbc" d="M8 33h1" transform="matrix(6.61765 0 0 6.1342 -1.4705884 19.467766)"/><path stroke="#c2c2c2" d="M10 33h5m-6 1h1m-5 1h2m-2 5h2m0 1h3m0 1h5" transform="matrix(6.61765 0 0 6.1342 -1.4705884 19.467766)"/><path stroke="#d7d7d7" d="M15 33h1m-1 9h1" transform="matrix(6.61765 0 0 6.1342 -1.4705884 19.467766)"/><path stroke="#2a2a2a" d="M18 33h14" transform="matrix(6.61765 0 0 6.1342 -1.4705884 19.467766)"/><path stroke="#9f9f9f" d="M4 34h1m-1 7h1" transform="matrix(6.61765 0 0 6.1342 -1.4705884 19.467766)"/><path stroke="silver" d="M7 34h1" transform="matrix(6.61765 0 0 6.1342 -1.4705884 19.467766)"/><path stroke="#c1c1c1" d="M8 34h1" transform="matrix(6.61765 0 0 6.1342 -1.4705884 19.467766)"/><path stroke="#c7c7c7" d="M10 34h5m-6 1h1m-5 1h2m-2 3h2m0 1h3m0 1h5" transform="matrix(6.61765 0 0 6.1342 -1.4705884 19.467766)"/><path stroke="#dadada" d="M15 34h1m-1 7h1" transform="matrix(6.61765 0 0 6.1342 -1.4705884 19.467766)"/><path stroke="#2c2c2c" d="M18 34h16" transform="matrix(6.61765 0 0 6.1342 -1.4705884 19.467766)"/><path stroke="#a5a5a5" d="M4 35h1m-1 5h1" transform="matrix(6.61765 0 0 6.1342 -1.4705884 19.467766)"/><path stroke="#c5c5c5" d="M7 35h1" transform="matrix(6.61765 0 0 6.1342 -1.4705884 19.467766)"/><path stroke="#c6c6c6" d="M8 35h1" transform="matrix(6.61765 0 0 6.1342 -1.4705884 19.467766)"/><path stroke="#dedede" d="M15 35h1m-1 5h1" transform="matrix(6.61765 0 0 6.1342 -1.4705884 19.467766)"/><path stroke="#2e2e2e" d="M18 35h18" transform="matrix(6.61765 0 0 6.1342 -1.4705884 19.467766)"/><path stroke="#acacac" d="M4 36h1m-1 3h1" transform="matrix(6.61765 0 0 6.1342 -1.4705884 19.467766)"/><path stroke="#cacaca" d="M7 36h1" transform="matrix(6.61765 0 0 6.1342 -1.4705884 19.467766)"/><path stroke="#cbcbcb" d="M8 36h1" transform="matrix(6.61765 0 0 6.1342 -1.4705884 19.467766)"/><path stroke="#e2e2e2" d="M15 36h1m-1 3h1" transform="matrix(6.61765 0 0 6.1342 -1.4705884 19.467766)"/><path stroke="#303030" d="M18 36h20" transform="matrix(6.61765 0 0 6.1342 -1.4705884 19.467766)"/><path stroke="#e6e6e6" d="M15 37h1m-1 1h1m54 2h1m-1 1h1" transform="matrix(6.61765 0 0 6.1342 -1.4705884 19.467766)"/><path stroke="#333" d="M18 37h21" transform="matrix(6.61765 0 0 6.1342 -1.4705884 19.467766)"/><path stroke="#932721" d="M65 37h5m-53 1h1m-2 1h1m5 5h11m-15 3h1m-2 1h1" transform="matrix(6.61765 0 0 6.1342 -1.4705884 19.467766)"/><path stroke="#d4d4d4" d="M71 38h1m-3 5h1" transform="matrix(6.61765 0 0 6.1342 -1.4705884 19.467766)"/><path stroke="#ddd" d="M71 39h1m-3 3h1" transform="matrix(6.61765 0 0 6.1342 -1.4705884 19.467766)"/><path stroke="#7f211c" d="M22 45h5" transform="matrix(6.61765 0 0 6.1342 -1.4705884 19.467766)"/></svg>